<?xml version="1.0" standalone="no"?>
<!DOCTYPE svg PUBLIC "-//W3C//DTD SVG 1.1//EN" "http://www.w3.org/Graphics/SVG/1.1/DTD/svg11.dtd" >
<svg xmlns="http://www.w3.org/2000/svg">
<metadata>
<json>
{
	"fontFamily": "icomoon-material-icons",
	"majorVersion": 1,
	"minorVersion": 0,
	"version": "Version 1.0",
	"fontId": "icomoon-material-icons",
	"psName": "icomoon-material-icons",
	"subFamily": "Regular",
	"fullName": "icomoon-material-icons",
	"description": "Font generated by IcoMoon."
}
</json>
</metadata>
<defs>
<font id="icomoon-material-icons" horiz-adv-x="512">
<font-face units-per-em="512" ascent="480" descent="-32" />
<missing-glyph horiz-adv-x="512" />
<glyph unicode="&#x20;" d="" horiz-adv-x="256" />
<glyph unicode="&#xe600;" d="M43 224q0-44 16.5-83t45.5-68 68-45.5 83-16.5 83 16.5 68 45.5 45.5 68 16.5 83-16.5 83-45.5 68-68 45.5-83 16.5-83-16.5-68-45.5-45.5-68-16.5-83zM107 213q0 12 4 21.5t11 16.5 17 11.5 21 4.5h13q3 13 10.5 25t18.5 20q11 9 25 14t29 5q18 0 33.5-7t26.5-18q12-12 18.5-27.5t6.5-33.5h22q8 0 16-3t14-9 9-14 3-16q0-9-3-17t-9-13q-6-6-14-9.5t-16-3.5h-203q-11 0-21 4t-17 11q-7 8-11 17.5t-4 20.5z" />
<glyph unicode="&#xe601;" d="M107 105l30-30 119 119 119-119 30 30-119 119 119 119-30 30-119-119-119 119-30-30 119-119z" />
<glyph unicode="&#xe602;" d="M43 224q0-44 16.5-83t45.5-68 68-45.5 83-16.5 83 16.5 68 45.5 45.5 68 16.5 83h-42q0-35-13.5-66t-36.5-55q-24-23-55-36.5t-66-13.5-66 13.5-55 36.5q-23 24-36.5 55t-13.5 66 13.5 66 36.5 55q24 23 55 36.5t66 13.5q6 0 12-0.5t12-1.5 11.5-2 11.5-3l34 34q-10 4-19.5 6.5t-20.5 4.5q-10 2-20.5 3t-20.5 1q-44 0-83-16.5t-68-45.5-45.5-68-16.5-83zM139 235l96-96 213 213-30 30-183-184-66 67z" />
<glyph unicode="&#xe603;" d="M43 117l85 86h213q10 0 16 5.5t6 15.5v192q0 10-6 15.5t-16 5.5h-277q-10 0-15.5-5.5t-5.5-15.5v-299zM128 117q0-9 6-15t15-6h235l85-85v320q0 9-5.5 15t-15.5 6h-43v-192h-277v-43z" />
<glyph unicode="&#xe604;" d="M43 224q0-44 16.5-83t45.5-68 68-45.5 83-16.5 83 16.5 68 45.5 45.5 68 16.5 83-16.5 83-45.5 68-68 45.5-83 16.5-83-16.5-68-45.5-45.5-68-16.5-83zM85 224q0 35 13.5 66t36.5 55q24 23 55 36.5t66 13.5 66-13.5 55-36.5q23-24 36.5-55t13.5-66-13.5-66-36.5-55q-24-23-55-36.5t-66-13.5-66 13.5-55 36.5q-23 24-36.5 55t-13.5 66z" />
<glyph unicode="&#xe605;" d="M171 224l128-128 30 30-99 98 99 98-30 30z" />
<glyph unicode="&#xe606;" d="M107 105l30-30 119 119 119-119 30 30-119 119 119 119-30 30-119-119-119 119-30-30 119-119z" />
<glyph unicode="&#xe607;" d="M43 203q0-40 15-75t41-61 61-41 75-15q36 0 68 12t57 34 42 51 23 63q-8-3-15.5-5t-15.5-3q-7-1-15-2t-16-1h-7q-6-18-18-34t-27-27q-16-11-35.5-17.5t-40.5-6.5q-27 0-50 10t-41 27q-17 18-27 41t-10 50q0 20 6.5 39t17.5 35 27 28 34 19v7q0 8 1 16t2 15q1 8 3 15.5t5 15.5q-34-6-63-23t-51-42-34-57-12-68zM235 331q0-27 10-50t27-41q18-17 41-27t50-10q26 0 49.5 10t40.5 27q17 18 27.5 41t10.5 50q0 26-10.5 49.5t-27.5 40.5-40.5 27.5-49.5 10.5q-27 0-50-10.5t-41-27.5q-17-17-27-40.5t-10-49.5zM299 331q0 13 4.5 25t13.5 20q9 9 20.5 14t25.5 5q13 0 25-5t20-14q9-8 14-20t5-25q0-14-5-25.5t-14-20.5q-8-9-20-13.5t-25-4.5q-14 0-25.5 4.5t-20.5 13.5-13.5 20.5-4.5 25.5z" />
<glyph unicode="&#xe608;" d="M43 224q0-44 16.5-83t45.5-68 68-45.5 83-16.5 83 16.5 68 45.5 45.5 68 16.5 83-16.5 83-45.5 68-68 45.5-83 16.5-83-16.5-68-45.5-45.5-68-16.5-83zM85 224q0 35 13.5 66t36.5 55q24 23 55 36.5t66 13.5 66-13.5 55-36.5q23-24 36.5-55t13.5-66-13.5-66-36.5-55q-24-23-55-36.5t-66-13.5-66 13.5-55 36.5q-23 24-36.5 55t-13.5 66zM171 203h64v-64h42v64h64v42h-64v64h-42v-64h-64v-42z" />
<glyph unicode="&#xe609;" d="M43 117q0-17 6.5-32.5t18.5-27.5q11-12 26.5-18.5t33.5-6.5 33.5 6.5 26.5 18.5q12 12 18.5 27.5t6.5 32.5q0 18-6.5 33.5t-18.5 27.5q-11 11-26.5 18t-33.5 7-33.5-7-26.5-18q-12-12-18.5-27.5t-6.5-33.5zM85 117q0 9 3.5 17t9.5 13q6 6 13.5 9.5t16.5 3.5 16.5-3.5 13.5-9.5q6-5 9.5-13t3.5-17q0-8-3.5-16t-9.5-14-13.5-9-16.5-3-16.5 3-13.5 9-9.5 14-3.5 16zM171 352q0-18 6.5-33.5t18.5-26.5q11-12 26.5-18.5t33.5-6.5 33.5 6.5 26.5 18.5q12 11 18.5 26.5t6.5 33.5-6.5 33.5-18.5 26.5q-11 12-26.5 18.5t-33.5 6.5-33.5-6.5-26.5-18.5q-12-11-18.5-26.5t-6.5-33.5zM213 352q0 9 3.5 16.5t9.5 13.5 13.5 9.5 16.5 3.5 16.5-3.5 13.5-9.5 9.5-13.5 3.5-16.5-3.5-16.5-9.5-13.5-13.5-9.5-16.5-3.5-16.5 3.5-13.5 9.5-9.5 13.5-3.5 16.5zM215 203q0-8 3.5-15.5t9.5-13.5q5-5 12.5-8.5t15.5-3.5 15.5 3.5 12.5 8.5q6 6 9.5 13.5t3.5 15.5-3.5 15-9.5 13q-5 6-12.5 9t-15.5 3-15.5-3-12.5-9q-6-6-9.5-13t-3.5-15zM299 117q0-17 6.5-32.5t18.5-27.5q11-12 26.5-18.5t33.5-6.5 33.5 6.5 26.5 18.5q12 12 18.5 27.5t6.5 32.5q0 18-6.5 33.5t-18.5 27.5q-11 11-26.5 18t-33.5 7-33.5-7-26.5-18q-12-12-18.5-27.5t-6.5-33.5zM341 117q0 9 3.5 17t9.5 13q6 6 13.5 9.5t16.5 3.5 16.5-3.5 13.5-9.5q6-5 9.5-13t3.5-17q0-8-3.5-16t-9.5-14-13.5-9-16.5-3-16.5 3-13.5 9-9.5 14-3.5 16z" />
<glyph unicode="&#xe60a;" d="M43 224q0-44 16.5-83t45.5-68 68-45.5 83-16.5 83 16.5 68 45.5 45.5 68 16.5 83-16.5 83-45.5 68-68 45.5-83 16.5-83-16.5-68-45.5-45.5-68-16.5-83zM85 224q0 12 1.5 23t4.5 22 7.5 21 10.5 19l74-128q6-9 14-17t17-14q10-5 20.5-8t21.5-3q8 0 14.5 1t13.5 3l-51-88q-32 4-58.5 19t-46.5 38q-20 22-31.5 51t-11.5 61zM122 329q12 15 26.5 27t31.5 21q17 8 36 13t40 5q24 0 46-6.5t40-17.5q19-11 34.5-26.5t26.5-35.5h-147q-15 0-29-5t-25-14q-12-10-19.5-22.5t-9.5-26.5zM192 224q0 14 5 25.5t13 20.5q9 8 20.5 13t25.5 5 25.5-5 20.5-13q8-9 13-20.5t5-25.5-5-25.5-13-20.5q-9-8-20.5-13t-25.5-5-25.5 5-20.5 13q-8 9-13 20.5t-5 25.5zM256 53l75 128q2 5 4.5 10t3.5 11q2 5 3 10.5t1 11.5q0 10-1.5 19t-5.5 17-9.5 15-12.5 13h102q3-7 5.5-14.5t4.5-15.5q1-8 2-16.5t1-17.5q-1-35-15-66t-37-55q-24-23-55-36.5t-66-13.5z" />
<glyph unicode="&#xe60b;" d="M0 181q0-26 10-49.5t28-40.5q17-17 40.5-27.5t49.5-10.5h277q23 0 42.5 8.5t33.5 22.5q14 15 22.5 34.5t8.5 41.5q0 21-8 39.5t-21 33.5q-13 14-31 23t-38 11q-6 27-20 50.5t-35 40.5-47 27-56 10q-23 0-44.5-6.5t-39.5-17.5-32.5-26.5-24.5-35.5q-25-3-46-14t-36-28q-16-17-24.5-39t-8.5-47zM149 203h64v85h86v-85h64l-107-107z" />
<glyph unicode="&#xe60c;" d="M183 126l30-30 128 128-128 128-30-30 99-98z" />
<glyph unicode="&#xe60d;" d="M0 181q0-26 10-49.5t28-40.5q17-17 40.5-27.5t49.5-10.5h277q23 0 42.5 8.5t33.5 22.5q14 15 22.5 34.5t8.5 41.5q0 21-8 39.5t-21 33.5q-13 14-31 23t-38 11q-6 27-20 50.5t-35 40.5-47 27-56 10q-23 0-44.5-6.5t-39.5-17.5-32.5-26.5-24.5-35.5q-25-3-46-14t-36-28q-16-17-24.5-39t-8.5-47zM149 203l107 106 107-106h-64v-86h-86v86h-64z" />
<glyph unicode="&#xe60e;" d="M0 181q0-26 10-49.5t28-40.5q17-17 40.5-27.5t49.5-10.5h277q23 0 42.5 8.5t33.5 22.5q14 15 22.5 34.5t8.5 41.5q0 21-8 39.5t-21 33.5q-13 14-31 23t-38 11q-6 27-20 50.5t-35 40.5-47 27-56 10q-23 0-44.5-6.5t-39.5-17.5-32.5-26.5-24.5-35.5q-25-3-46-14t-36-28q-16-17-24.5-39t-8.5-47zM43 181q0 18 6.5 33.5t18.5 27.5q11 11 26.5 18t33.5 7h15q6 18 16.5 33.5t25.5 27.5q15 11 33 17.5t38 6.5q24 0 45.5-9.5t37.5-25.5 25-37 9-45v-11h32q14 0 25.5-5t20.5-13q9-9 13.5-20.5t4.5-25.5-4.5-25.5-13.5-20.5q-9-8-20.5-13t-25.5-5h-277q-18 0-33.5 6.5t-26.5 18.5q-12 12-18.5 27.5t-6.5 32.5z" />
<glyph unicode="&#xe60f;" d="M43 224q0-44 16.5-83t45.5-68 68-45.5 83-16.5 83 16.5 68 45.5 45.5 68 16.5 83-16.5 83-45.5 68-68 45.5-83 16.5-83-16.5-68-45.5-45.5-68-16.5-83zM149 147l77 77-77 77 30 30 77-77 77 77 30-30-77-77 77-77-30-30-77 77-77-77z" />
<glyph unicode="&#xe610;" d="M21 32h64q0 14-4.5 25.5t-13.5 20.5q-9 8-20.5 13t-25.5 5v-64zM21 139q23 0 42.5-8.5t33.5-22.5q14-15 22.5-34.5t8.5-41.5h43q0 31-12 58.5t-32 47.5-47 31.5-59 11.5v-42zM21 224q40 0 75-15t61-41 41-61 15-75h43q0 49-18.5 91.5t-50.5 74.5q-31 32-74 50.5t-92 18.5v-43zM21 309h43v64h384v-298h-149v-43h149q9 0 16.5 3.5t13.5 9.5q6 5 9.5 13t3.5 17v298q0 9-3.5 17t-9.5 13q-6 6-13.5 9.5t-16.5 3.5h-384q-9 0-16.5-3.5t-13.5-9.5q-6-5-9.5-13t-3.5-17v-64z" />
<glyph unicode="&#xe611;" d="M21 32h64q0 14-4.5 25.5t-13.5 20.5q-9 8-20.5 13t-25.5 5v-64zM21 139q23 0 42.5-8.5t33.5-22.5q14-15 22.5-34.5t8.5-41.5h43q0 31-12 58.5t-32 47.5-47 31.5-59 11.5v-42zM21 224q40 0 75-15t61-41 41-61 15-75h43q0 49-18.5 91.5t-50.5 74.5q-31 32-74 50.5t-92 18.5v-43zM21 309h43v64h384v-298h-149v-43h149q9 0 16.5 3.5t13.5 9.5q6 5 9.5 13t3.5 17v298q0 9-3.5 17t-9.5 13q-6 6-13.5 9.5t-16.5 3.5h-384q-9 0-16.5-3.5t-13.5-9.5q-6-5-9.5-13t-3.5-17v-64zM107 297q32-11 60-28t51-40 40-51.5 28-60.5h119v214h-298v-34z" />
<glyph unicode="&#xe612;" d="M43 11l86 85h298q9 0 16.5 3.5t14.5 9.5q5 5 8.5 13t2.5 17l1 256q-1 8-3.5 16t-9.5 14q-5 6-13.5 9t-15.5 3h-342q-9 0-16.5-3t-14.5-9q-5-6-8.5-14t-2.5-16zM128 181l1 43h170l1-43h-172zM128 288h257l-1-43h-255zM128 352h257l-1-43h-255z" />
<glyph unicode="&#xe613;" d="M73 194l119-119 256 256-30 30-226-227-90 90z" />
<glyph unicode="&#xe614;" d="M63 373l1-298q-1-9 3-17t9-13q6-6 13.5-9.5t17.5-3.5h297q10 0 17.5 3.5t13.5 9.5q5 5 9 13t3 17l1 298q-1 9-4 17t-10 13q-4 6-12.5 9.5t-16.5 3.5h-299q-8 0-16.5-3.5t-12.5-9.5q-7-5-10-13t-4-17zM107 224l29 30 77-77 161 162 31-30-193-192z" />
<glyph unicode="&#xe615;" d="M63 373l1-298q-1-9 3-17t9-13q6-6 13.5-9.5t17.5-3.5h297q10 0 17.5 3.5t13.5 9.5q5 5 9 13t3 17l1 298q-1 9-4 17t-10 13q-4 6-12.5 9.5t-16.5 3.5h-299q-8 0-16.5-3.5t-12.5-9.5q-7-5-10-13t-4-17z" />
<glyph unicode="&#xe616;" d="M64 75q0-9 3.5-17t9.5-13q5-6 13-9.5t17-3.5h298q9 0 17 3.5t13 9.5q6 5 9.5 13t3.5 17v170h-43v-170h-298v298h213v43h-213q-9 0-17-3.5t-13-9.5q-6-5-9.5-13t-3.5-17v-298zM139 235l96-96 213 213-30 30-183-184-66 67z" />
<glyph unicode="&#xe617;" d="M64 74q0-8 3.5-16.5t9.5-12.5q5-7 13-10t17-4l298 1q9-1 17 3t13 9q6 6 9.5 13.5t3.5 17.5v297q0 10-3.5 17.5t-9.5 13.5q-5 5-13 9t-17 3v0l-298 1q-9-1-17-4t-13-10q-6-4-9.5-12.5t-3.5-16.5v-299zM107 75v297l298 1v-299z" />
<glyph unicode="&#xe618;" d="M43 224q0-44 16.5-83t45.5-68 68-45.5 83-16.5 83 16.5 68 45.5 45.5 68 16.5 83-16.5 83-45.5 68-68 45.5-83 16.5-83-16.5-68-45.5-45.5-68-16.5-83zM107 224l30 30 76-77 162 162 30-30-192-192z" />
<glyph unicode="&#xe619;" d="M63 352l1-256q-1-9 3-16.5t9-13.5q6-6 13.5-9.5t17.5-3.5h297q10 0 17.5 3.5t13.5 9.5q5 6 9 13.5t3 16.5l1 256q-1 9-4 16.5t-10 13.5q-4 6-12.5 9.5t-16.5 3.5h-299q-8 0-16.5-3.5t-12.5-9.5q-7-6-10-13.5t-4-16.5zM127 267q1 9 6.5 15t15.5 6h63q11 0 16.5-6t6.5-15l-1-22h-31l-1 11h-42l-1-64h44l-1 11h33l-1-22q1-9-5.5-15t-15.5-6h-65q-8 0-14.5 6t-5.5 15zM276 181l1 86q-1 9 5.5 15t15.5 6h65q8 0 14.5-6t5.5-15l1-22h-33l1 11h-44l1-64h42l1 11h31l1-22q-1-9-6.5-15t-15.5-6h-63q-11 0-16.5 6t-6.5 15z" />
<glyph unicode="&#xe61a;" d="M0 181q0-26 10-49.5t28-40.5q17-17 40.5-27.5t49.5-10.5h277q23 0 42.5 8.5t33.5 22.5q14 15 22.5 34.5t8.5 41.5q0 21-8 39.5t-21 33.5q-13 14-31 23t-38 11q-6 27-20 50.5t-35 40.5-47 27-56 10q-23 0-44.5-6.5t-39.5-17.5-32.5-26.5-24.5-35.5q-25-3-46-14t-36-28q-16-17-24.5-39t-8.5-47z" />
<glyph unicode="&#xe61b;" d="M64 75q0-9 3.5-17t9.5-13q5-6 13-9.5t17-3.5v43h-43zM64 117h43v43h-43v-43zM64 203h43v42h-43v-42zM64 288h43v43h-43v-43zM149 32h43v43h-43v-43zM149 160q0-9 3.5-16.5t9.5-13.5 13.5-9.5 16.5-3.5h213q9 0 17 3.5t13 9.5q6 6 9.5 13.5t3.5 16.5v213q0 9-3.5 17t-9.5 13q-5 6-13 9.5t-17 3.5h-213q-9 0-16.5-3.5t-13.5-9.5q-6-5-9.5-13t-3.5-17v-213zM192 160v213h213v-213h-213zM235 32h42v43h-42v-43zM320 32h43v43h-43v-43z" />
<glyph unicode="&#xe61c;" d="M63 352l1-43h383l1 43h-385zM127 245l1-42h255l1 42h-257zM212 139l1-43h85l1 43h-87z" />
<glyph unicode="&#xe61d;" d="M106 32h43l-1 149h121l7-42h151l-1 213h-119l-9 43h-191z" />
<glyph unicode="&#xe61e;" d="M0 181q0-26 10-49.5t28-40.5q17-17 40.5-27.5t49.5-10.5h277q23 0 42.5 8.5t33.5 22.5q14 15 22.5 34.5t8.5 41.5q0 21-8 39.5t-21 33.5q-13 14-31 23t-38 11q-6 27-20 50.5t-35 40.5-47 27-56 10q-23 0-44.5-6.5t-39.5-17.5-32.5-26.5-24.5-35.5q-25-3-46-14t-36-28q-16-17-24.5-39t-8.5-47zM139 192l30 30 44-45 111 111 30-30-141-141z" />
<glyph unicode="&#xe61f;" d="M43 224q0-44 16.5-83t45.5-68 68-45.5 83-16.5 83 16.5 68 45.5 45.5 68 16.5 83-16.5 83-45.5 68-68 45.5-83 16.5-83-16.5-68-45.5-45.5-68-16.5-83z" />
<glyph unicode="&#xe620;" d="M15 224l70-70v-101h101l70-70 70 70h101v101l70 70-70 70v101h-101l-70 70-70-70h-101v-101zM166 139l69 192h42l69-192h-41l-15 42h-68l-15-42h-41zM233 211h49l-26 77z" />
<glyph unicode="&#xe621;" d="M43 212.5q0-5.5 1-10.5 1-6 1.5-11t1.5-10h160l-26 43-83 145q-13-14-23-31t-17-35q-8-18-11.5-38t-3.5-41v-11.5zM53 160q8-23 20-44t28-38q17-18 37-31t43-21l79 134h-207zM122 388l79-134v2l102 177q-6 1-12 1.5t-12 1.5-11.5 1h-11.5q-19 0-37.5-3t-35.5-9-32.5-15.5-28.5-21.5zM209 15q6-2 11.5-2.5t11.5-1.5h24q19 0 37.5 3t35.5 9 32.5 15.5 28.5 21.5l-79 134-19-34zM254 288h205q-8 23-20 44t-28 38q-17 18-37 31t-43 21zM305 267l6-11 103-177q13 14 23 31t17 35q8 18 11.5 38t3.5 41v11.5t-1 10.5q-1 6-1.5 11t-1.5 10h-160z" />
<glyph unicode="&#xe622;" d="M107 75h213v42h-141l269 269-30 30-269-269v141h-42v-213z" />
<glyph unicode="&#xe623;" d="M15 224l70-70v-101h101l70-70 70 70h101v101l70 70-70 70v101h-101l-70 70-70-70h-101v-101zM128 224q0 26 10 49.5t28 40.5q17 18 40.5 28t49.5 10 49.5-10 40.5-28q18-17 28-40.5t10-49.5-10-49.5-28-40.5q-17-18-40.5-28t-49.5-10-49.5 10-40.5 28q-18 17-28 40.5t-10 49.5z" />
<glyph unicode="&#xe624;" d="M107 106l30-31 98 99v-163l21 1 122 120-92 93 92 91-122 122-21-1v-161l-98 97-30-29 119-120zM277 92v82l41-42v1zM277 276v81l41-41z" />
<glyph unicode="&#xe625;" d="M15 224l70-70v-101h101l70-70 70 70h101v101l70 70-70 70v101h-101l-70 70-70-70h-101v-101zM256 96v256q26 0 49.5-10t40.5-28q18-17 28-40.5t10-49.5-10-49.5-28-40.5q-17-18-40.5-28t-49.5-10z" />
<glyph unicode="&#xe626;" d="M85 96h60q8-14 20-26t26-20q14-9 30.5-13.5t34.5-4.5 34.5 4.5 30.5 13.5q14 8 26 20t20 26h60v43h-45q1 4 1.5 10t0.5 11v21h43v43h-43v21q0 5-0.5 11t-1.5 11h45v42h-60q-4 7-8.5 13t-9.5 11q-4 5-9.5 10t-10.5 9l34 34-30 30-47-47q-7 2-14.5 3t-15.5 1-15.5-1-14.5-3l-47 47-30-30 34-34q-5-4-10.5-9t-9.5-10q-5-5-9.5-11t-8.5-13h-60v-42h45q-1-5-1.5-11t-0.5-11v-21h-43v-43h43v-21q0-5 0.5-11t1.5-10h-45v-43zM213 139v42h86v-42h-86zM213 224v43h86v-43h-86z" />
<glyph unicode="&#xe627;" d="M21 213q0-12 3-24t9-22 13.5-18 17.5-15v-145h384v145q10 7 17.5 15.5t13.5 18.5 9 21.5 3 23.5q0 20-7.5 37.5t-20.5 30.5-30.5 20.5-37.5 7.5h-118v32h-42v-32h-118q-20 0-37.5-7.5t-30.5-20.5-20.5-30.5-7.5-37.5zM64 213q0 12 4 21.5t11 16.5q8 7 17.5 11.5t20.5 4.5h278q11 0 20.5-4.5t17.5-11.5q7-7 11-16.5t4-21.5q0-11-4-20.5t-11-17.5q-8-7-17.5-11t-20.5-4q-6 0-11 1t-10 3-9.5 5-8.5 6l-32 32-32-32q-3-3-7-6t-8-5q-5-2-10-3t-11-1-11 1-10 3-9 5l-8 6-32 32-32-32-8-6t-8-5q-5-2-10-3t-11-1q-11 0-20.5 4t-17.5 11q-7 8-11 17.5t-4 20.5zM224 395q0-7 2.5-12.5t7.5-10.5q4-4 10-6.5t12-2.5 12 2.5 10 6.5q5 5 7.5 10.5t2.5 12.5q0 4-1.5 8t-2.5 9l-28 47-28-47q-1-3-2.5-8t-1.5-9z" />
<glyph unicode="&#xe628;" d="M85 53q0-8 3.5-16t9.5-14 13.5-9 16.5-3h256q9 0 16.5 3t13.5 9 9.5 14 3.5 16v342q0 8-3.5 16t-9.5 14-13.5 9-16.5 3h-128v-149l-53 32-54-32v149h-21q-9 0-16.5-3t-13.5-9-9.5-14-3.5-16v-342z" />
<glyph unicode="&#xe629;" d="M64 396q0 8 6 14.5 5.25 5.75 12.75 5.75 1 0 2.25-0.25l75 1q10-1 15.5-6.5t5.5-15.5q0-9 1-19t3-19q1-10 3.5-19.5t5.5-19.5q2-4 0.5-10.5t-4.5-9.5l-49-48q11-22 26-42.5t33-37.5q18-19 38.5-33.5t43.5-27.5l47 48q4 4 10 5.5t11-2.5q9-2 18-5t19-4q9-2 19-2.5t21-1.5q1.25 0.25 2.25 0.25 7.5 0 12.75-5.75 6-6.5 6-14.5v-74q0-8-6-14.5-5.25-5.75-12.75-5.75-1 0-2.25 0.25h-5q-73.25 0-137 28-66 29-115 77-49 50-77.5 115.5t-28.5 142.5z" />
<glyph unicode="&#xe62a;" d="M0 215q0 5 1.5 8.5t4.5 6.5q24 24 52.5 42.5t60.5 31.5 66.5 20 70.5 7 70.5-7 66.5-20 60.5-31.5 52.5-42.5q3-3 4.5-6.5t1.5-8.5q0-4-1.5-7.5t-4.5-6.5l-54-54q-3-3-6.5-4.5t-8.5-1.5q-4 0-7.5 1.5t-7.5 4.5q-6 6-13 11.5t-14 10.5-14.5 10-15.5 9q-5 3-9 8t-4 11v66q-11 3-22.5 6t-23.5 5-24.5 3-25.5 1-25.5-1-24.5-3-24-5l-24-6v-66q0-6-3.5-11t-9.5-8q-8-4-15.5-8.5t-14.5-9.5q-8-5-14.5-10.5t-13.5-12.5q-3-3-6.5-4.5t-7.5-1.5q-5 0-8.5 1.5t-6.5 4.5l-54 54q-1 3-2.5 6.5t-1.5 7.5z" />
<glyph unicode="&#xe62b;" d="M64 61l30-29 269 268v-140l42-1v214h-213v-43l141 1z" />
<glyph unicode="&#xe62c;" d="M43 53q0-8 3-16t9-14 14-9 16-3h171q9 0 16.5 3t13.5 9 9.5 14 3.5 16h170v320h-170q0 9-3.5 17t-9.5 13q-6 6-13.5 9.5t-16.5 3.5h-21v21q0 10-6 16t-16 6h-85q-10 0-15.5-6t-5.5-16v-21h-22q-8 0-16-3.5t-14-9.5q-6-5-9-13t-3-17v-320zM213 96v43h43v-43h-43zM213 288v43h43v-43h-43zM299 96v43h42v-43h-42zM299 288v43h42v-43h-42zM384 96v43h43v-43h-43zM384 288v43h43v-43h-43z" />
<glyph unicode="&#xe62d;" d="M43 96q0-9 3-16.5t9-13.5 14-9.5 16-3.5h342q8 0 16 3.5t14 9.5 9 13.5 3 16.5v256q0 9-3 16.5t-9 13.5-14 9.5-16 3.5h-69l-38 42h-128l-38-42h-69q-8 0-16-3.5t-14-9.5-9-13.5-3-16.5v-256zM149 224q0 22 8.5 41.5t22.5 34.5q15 14 34.5 22.5t41.5 8.5 41.5-8.5 34.5-22.5q14-15 22.5-34.5t8.5-41.5-8.5-41.5-22.5-34.5q-15-14-34.5-22.5t-41.5-8.5-41.5 8.5-34.5 22.5q-14 15-22.5 34.5t-8.5 41.5zM188 224q0 14 5 26.5t15 21.5q9 10 21.5 15t26.5 5 26.5-5 21.5-15q10-9 15-21.5t5-26.5-5-26.5-15-21.5q-9-10-21.5-15t-26.5-5-26.5 5-21.5 15q-10 9-15 21.5t-5 26.5z" />
<glyph unicode="&#xe62e;" d="M107 32l150 64 148-64 1 341q-1 9-3.5 17t-9.5 13q-5 6-13.5 9.5t-15.5 3.5h-214q-9 0-16.5-3.5t-14.5-9.5q-5-5-8.5-13-2.75-6.25-2.75-13 0-2 0.25-4z" />
<glyph unicode="&#xe62f;" d="M107 32l150 64 148-64 1 341q-1 9-3.5 17t-9.5 13q-5 6-13.5 9.5t-15.5 3.5h-214q-9 0-16.5-3.5t-14.5-9.5q-5-5-8.5-13-2.75-6.25-2.75-13 0-2 0.25-4zM149 96l1 277h213l1-277h-1l-106 47z" />
<glyph unicode="&#xe630;" d="M63 416l1-275q-1-6 0.5-11t3.5-10l6-8t9-7l172-116 174 116 7 7t5 8q4 5 5 10t2 11l-1 275q0.25 1.75 0.25 3.5 0 7-3.25 13-4 7.5-9 13.5-6 6-13.5 9.5t-17.5 3.5h-298q-8 0-16.5-3.5t-12.5-9.5q-7-6-10-13.5t-4-16.5zM106 245l31 30 75-77 163 163 29-30-191-192z" />
<glyph unicode="&#xe631;" d="M64 105l30-30 98 98v-162h21l122 121-92 92 92 92-122 121h-21v-162l-98 98-30-30 119-119zM235 92v81l40-41zM235 275v81l40-40zM303 224l49-49q2 6 4 11.5t3 12.5q1 6 1.5 12.5t0.5 12.5-1 12.5-2 12.5q-1 7-2.5 12.5t-3.5 11.5zM390 139l26-26q8 12 14 25.5t10 27.5q4 15 6 30t2 30-2 30-6 29-10 27-14 25l-26-28q5-9 9-19.5t7-21.5 4.5-22 1.5-22-1.5-22-4.5-22-7-21.5-9-19.5z" />
<glyph unicode="&#xe632;" d="M15 223l70-69v-102l101 1 70-71 70 71 101-1v102l70 69-70 71v100l-101 1-70 69-70-69-101-1v-100zM128 223q0 27 10 50t28 41q17 17 40.5 27.5 21.5 9.5 45 9.5h9q23.5 0 45-9.5 23.5-10.5 40.5-27.5 18-18 28-41t10-50q0-25-10-49t-28-40q-17-19-40.5-28.5t-49.5-10.5q-26 1-49.5 10.5t-40.5 28.5q-18 16-28 40t-10 49zM171 224q0-19 6.5-34t18.5-27q11-11 26.5-18 13.5-6 29-6h9q15.5 0 29 6 15.5 7 26.5 18 12 12 18.5 27t6.5 34q0 17-6.5 33t-18.5 26q-11 13-26.5 19t-33.5 7q-18-1-33.5-7t-26.5-19q-12-10-18.5-26t-6.5-33z" />
<glyph unicode="&#xe633;" d="M64 224l42-43 43 43-43 43zM107 105l29-30 99 98-1-162h22l121 121-91 92 91 92-121 121h-22l1-162-99 98-29-30 118-119zM276 92l1 81 40-41h1zM276 356h1l40-40-40-41zM362 224l43-43 42 43-42 43z" />
<glyph unicode="&#xe634;" d="M64 105l30-30 98 98v-162h21l122 121-92 92 92 92-122 121h-21v-162l-98 98-30-30 119-119zM235 92v81l40-41zM235 275v81l40-40zM303 224l49-49q2 6 4 11.5t3 12.5q1 6 1.5 12.5t0.5 12.5-1 12.5-2 12.5q-1 7-2.5 12.5t-3.5 11.5zM390 139l26-26q8 12 14 25.5t10 27.5q4 15 6 30t2 30-2 30-6 29-10 27-14 25l-26-28q5-9 9-19.5t7-21.5 4.5-22 1.5-22-1.5-22-4.5-22-7-21.5-9-19.5z" />
<glyph unicode="&#xe635;" d="M85 267l49 49 101-101v-162h42v180l-113 113 49 49h-128v-128zM286 284l30-30 62 62 49-49v128h-128l49-49z" />
<glyph unicode="&#xe636;" d="M43 224q0-44 16.5-83t45.5-68 68-45.5 83-16.5 83 16.5 68 45.5 45.5 68 16.5 83-16.5 83-45.5 68-68 45.5-83 16.5-83-16.5-68-45.5-45.5-68-16.5-83zM85 224q0 35 13.5 66t36.5 55q24 23 55 36.5t66 13.5q14 0 28-2.5t27-7.5q14-4 26-11t24-16l-239-239q-9 12-16 24t-11 26q-5 13-7.5 27t-2.5 28zM151 90l239 239q9-12 16-24t11-26q5-13 7.5-27t2.5-28q0-35-13.5-66t-36.5-55q-24-23-55-36.5t-66-13.5q-14 0-28 2.5t-27 7.5q-14 4-26 11t-24 16z" />
<glyph unicode="&#xe637;" d="M64 160h43v98l149-149 192 192-30 30-162-162-119 119h98v43h-171v-171z" />
<glyph unicode="&#xe638;" d="M119 75l30-30 128 128v136h75l-96 96-96-96h75v-119zM290 117l73-72 30 30-73 72z" />
<glyph unicode="&#xe639;" d="M85 364l141-140-119-120 30-29 98 97v-161l21-1 92 92 49-50 30 31-312 311v1zM235 330l42-42v68l41-41-34-33 30-31 64 65-122 120-21 1v-107zM277 91v81l41-40z" />
<glyph unicode="&#xe63a;" d="M64 181h64v-192l149 256h-85l85 192h-213v-256zM294 245h41l15 43h68l15-43h41l-69 192h-42zM361 318l23 77 23-77h-46z" />
<glyph unicode="&#xe63b;" d="M43 96q0-9 3-16.5t9-13.5 14-9.5 16-3.5h342q8 0 16 3.5t14 9.5 9 13.5 3 16.5v213q0 9-3 17t-9 13q-6 6-14 9.5t-16 3.5h-171l-43 43h-128q-8 0-16-3.5t-14-9.5-9-13.5-3-16.5v-256z" />
<glyph unicode="&#xe63c;" d="M43 160h32l32 43h117l-53-171h42l107 171h117q7 0 12.5 2.5t10.5 6.5q4 5 6.5 10.5t2.5 12.5q0 6-2.5 12t-6.5 10q-5 4-10.5 7t-12.5 3h-117l-107 170h-42l53-170h-117l-32 42h-32l21-74z" />
<glyph unicode="&#xe63d;" d="M64 75q0-9 3.5-17t9.5-13q5-6 13-9.5t17-3.5h256v43h-256v256h-43v-256zM149 160q0-9 3.5-16.5t9.5-13.5 13.5-9.5 16.5-3.5v43h-43zM149 203h43v42h-43v-42zM149 288h43v43h-43v-43zM149 373h43v43q-9 0-16.5-3.5t-13.5-9.5q-6-5-9.5-13t-3.5-17zM235 117h42v43h-42v-43zM235 373h42v43h-42v-43zM320 117h43v43h-43v-43zM320 373h43v43h-43v-43zM405 117q9 0 17 3.5t13 9.5q6 6 9.5 13.5t3.5 16.5h-43v-43zM405 203h43v42h-43v-42zM405 288h43v43h-43v-43zM405 373h43q0 9-3.5 17t-9.5 13q-5 6-13 9.5t-17 3.5v-43z" />
<glyph unicode="&#xe63e;" d="M0 181q0-26 10-49.5t28-40.5q17-17 40.5-27.5t49.5-10.5h250l42-42 28 27-356 357-28-28 60-58q-26-1-48.5-11.5t-39.5-28.5q-17-17-26.5-39.5t-9.5-48.5zM43 181q0 18 6.5 33.5t18.5 27.5q11 11 26.5 18t33.5 7h36l171-171h-207q-18 0-33.5 6.5t-26.5 18.5q-12 12-18.5 27.5t-6.5 32.5zM171 369l32-32q5 4 11.5 7t13.5 5l14 2t14 1q24 0 45.5-9.5t37.5-25.5 25-37 9-45v-11h32q14 0 25.5-5t20.5-13q9-9 13.5-20.5t4.5-25.5q0-9-2-17t-7-16q-4-7-10.5-12.5t-14.5-9.5l32-32q11 7 19 16.5t14 20.5 9 23.5 3 26.5q0 21-8 39.5t-21 33.5q-13 14-31 23t-38 11q-6 27-20 50.5t-35 40.5-47 27-56 10q-12 0-23.5-2t-22.5-5-21-8-18-11z" />
<glyph unicode="&#xe63f;" d="M149 202l64 1v-193l150 257-86-1 86 171h-214v-235z" />
<glyph unicode="&#xe640;" d="M43 224q0-44 16.5-83t45.5-68 68-45.5 83-16.5 83 16.5 68 45.5 45.5 68 16.5 83-16.5 83-45.5 68-68 45.5-83 16.5-83-16.5-68-45.5-45.5-68-16.5-83zM149 203v42h86v86h42v-86h86v-42h-86v-86h-42v86h-86z" />
<glyph unicode="&#xe641;" d="M21 59.5q0-8.5 7-14.5l49-49q6-7 14.5-7t15.5 7l249 249q7 7 7 15.5t-7 14.5l-49 49q-6 7-14.5 7t-15.5-7l-249-249q-7-7-7-15.5zM107 331l53 30 53-30-30 53 30 53-53-30-53 30 30-53zM239 252l51 51 45-45-51-51zM363 75l53 30 53-30-30 53 30 53-53-30-53 30 30-53zM363 331l53 30 53-30-30 53 30 53-53-30-53 30 30-53z" />
<glyph unicode="&#xe642;" d="M85 203h261l-120-120 30-30 171 171-171 171-30-30 120-120h-261v-42z" />
<glyph unicode="&#xe643;" d="M43 139l170 53v-117l-42-32v-32l74 21 75-21v32l-43 32v79l122-122 28 28-335 335-28-28 107-107-128-79v-42zM213 326l167-166 68-21v42l-171 107v117q0 7-2.5 12.5t-6.5 10.5q-5 4-10.5 6.5t-12.5 2.5q-6 0-12-2.5t-10-6.5q-4-5-7-10.5t-3-12.5v-79z" />
<glyph unicode="&#xe644;" d="M64 288v43h384v-43h-128v-277h-43v128h-42v-128h-43v277h-128zM213 395q0 8 3.5 16t9.5 14 13.5 9 16.5 3 16.5-3 13.5-9 9.5-14 3.5-16q0-9-3.5-17t-9.5-13q-6-6-13.5-9.5t-16.5-3.5-16.5 3.5-13.5 9.5q-6 5-9.5 13t-3.5 17z" />
<glyph unicode="&#xe645;" d="M43 139l170 54v-118l-42-31v-33l74 22 75-22v33l-43 31v118l171-54v43l-171 106v118q0 6-2.5 12t-6.5 10q-5 5-10.5 7t-12.5 3q-6-1-12-3t-10-7q-4-4-7-10t-3-12v-118l-170-106v-43z" />
<glyph unicode="&#xe646;" d="M43 128q0-6 2.5-12t6.5-10q5-5 10.5-7.5t12.5-2.5q6 0 12 2.5t10 7.5q4 4 7 10t3 12v149q0 7-3 12.5t-7 10.5q-4 4-10 6.5t-12 2.5q-7 0-12.5-2.5t-10.5-6.5q-4-5-6.5-10.5t-2.5-12.5v-149zM128 96q0-10 6-15.5t15-5.5h22v-75q0-6 2.5-12t6.5-10q5-5 10.5-7.5t12.5-2.5q6 0 12 2.5t10 7.5q4 4 7 10t3 12v75h42v-75q0-6 3-12t7-10q4-5 10-7.5t12-2.5q7 0 12.5 2.5t10.5 7.5q4 4 6.5 10t2.5 12v75h22q9 0 15 5.5t6 15.5v213h-256v-213zM128 331h256q0 16-4 31t-11 28-16.5 24-21.5 19l27 28q4 3 4 7.5t-4 7.5q-3 3-7 3t-8-3l-32-32q-5 4-11.5 6.5t-13.5 4.5-14.5 3-15.5 1-15.5-1-14.5-3q-8-1-14.5-3.5t-13.5-5.5l-29 32q-4 1-9 1t-9-1q-1-3-1-8.5t1-8.5l28-28q-11-9-20.5-20t-16.5-24q-6-13-10-27.5t-4-30.5zM192 373v22h21v-22h-21zM299 373v22h21v-22h-21zM405 128q0-6 3-12t7-10q4-5 10-7.5t12-2.5q7 0 12.5 2.5t10.5 7.5q4 4 6.5 10t2.5 12v149q0 7-2.5 12.5t-6.5 10.5q-5 4-10.5 6.5t-12.5 2.5q-6 0-12-2.5t-10-6.5q-4-5-7-10.5t-3-12.5v-149z" />
<glyph unicode="&#xe647;" d="M84 139l1-86h85l1 86h-87zM84 181h87l-1 86h-85zM84 395l1-86h85l1 86h-87zM212 53h87l-1 86h-85zM212 267l1-86h85l1 86h-87zM212 395l1-86h85l1 86h-87zM340 139l1-86h85l1 86h-87zM340 181h87l-1 86h-85zM340 395l1-86h85l1 86h-87z" />
<glyph unicode="&#xe648;" d="M107 203v42h128v128h42v-128h128v-42h-128v-128h-42v128h-128z" />
<glyph unicode="&#xe649;" d="M64 75q0-9 3.5-17t9.5-13q5-6 13-9.5t17-3.5h298q9 0 17 3.5t13 9.5q6 5 9.5 13t3.5 17v266q0 8-3 15t-8 13l-30 36q-3 5-9 8t-14 3h-256q-8 0-14.5-3t-11.5-8l-27-36q-5-6-8-13t-3-15v-266zM109 373l17 22h256l19-22h-292zM139 224h74v43h86v-43h74l-117-117z" />
<glyph unicode="&#xe64a;" d="M85 224l172-171 29 30-119 120h260l1 42h-261l119 120-29 30z" />
<glyph unicode="&#xe64b;" d="M149 267l107-107 107 107h-214z" />
<glyph unicode="&#xe64c;" d="M0 181q0-26 10-49.5t28-40.5q17-17 40.5-27.5t49.5-10.5h277q23 0 42.5 8.5t33.5 22.5q14 15 22.5 34.5t8.5 41.5q0 21-8 39.5t-21 33.5q-13 14-31 23t-38 11q-6 27-20 50.5t-35 40.5-47 27-56 10q-23 0-44.5-6.5t-39.5-17.5-32.5-26.5-24.5-35.5q-25-3-46-14t-36-28q-16-17-24.5-39t-8.5-47zM149 203l107 106 107-106h-64v-86h-86v86h-64z" />
<glyph unicode="&#xe64d;" d="M0 224l115-173q3-4 7-7.5t8-5.5q4-3 9-4.5t10-1.5h320q9 0 17 3.5t13 9.5q6 5 9.5 13t3.5 17v298q0 9-3.5 17t-9.5 13q-5 6-13 9.5t-17 3.5h-320q-5 0-10-1t-9-4q-4-2-8-5.5t-7-8.5zM192 147l77 77-77 77 30 30 77-77 76 77 30-30-76-77 76-77-30-30-76 77-77-77z" />
<glyph unicode="&#xe64e;" d="M43 358l27-32 99 81-28 32zM64 203q0-40 15-75t41-61 61-41 75-15 75 15 61 41 41 61 15 75-15 75-41 61-61 41-75 15-75-15-61-41-41-61-15-75zM107 203q0 31 11.5 58t31.5 48q20 20 47.5 31.5t58.5 11.5 58.5-11.5 47.5-31.5q20-21 31.5-48t11.5-58q0-32-11.5-59t-31.5-47-47.5-32-58.5-12-58.5 12-47.5 32-31.5 47-11.5 59zM171 181h64v-64h42v64h64v43h-64v64h-42v-64h-64v-43zM343 410l99-84 27 32-98 84z" />
<glyph unicode="&#xe64f;" d="M63 373l1-298q-0.25-1.75-0.25-3.5 0-7 3.25-13.5 4-8 9-13 6-6 13.5-9.5t17.5-3.5h297q10 0 17.5 3.5t13.5 9.5q5 5 9 13 3.25 6.5 3.25 13.5 0 1.75-0.25 3.5l1 298q-1 9-4 17t-10 13q-4 6-12.5 9.5t-16.5 3.5h-299q-8 0-16.5-3.5t-12.5-9.5q-7-5-10-13t-4-17zM148 245h87l-1 86h43l-1-86h87l-1-42h-85l-1-86h-41l-1 86h-85z" />
<glyph unicode="&#xe650;" d="M43 75q1-9 3.5-17t9.5-13q5-6 13.5-9.5t15.5-3.5h343q7 0 15.5 3.5t13.5 9.5q7 5 9.5 13t3.5 17l-1 234q0.25 2 0.25 4 0 6.75-2.75 13-3.5 8-8.5 13-7 6-14.5 9.5t-16.5 3.5h-85l-1 43-41 42h-87l-41-42-1-43h-85q-9 0-16.5-3.5t-14.5-9.5q-5-5-8.5-13-2.75-6.25-2.75-13 0-2 0.25-4zM213 352l1 43h85l1-43h-87z" />
<glyph unicode="&#xe651;" d="M43 224q0-44 16.5-83t45.5-68 68-45.5 83-16.5 83 16.5 68 45.5 45.5 68 16.5 83-16.5 83-45.5 68-68 45.5-83 16.5-83-16.5-68-45.5-45.5-68-16.5-83zM85 224q0 35 13.5 66t36.5 55q24 23 55 36.5t66 13.5 66-13.5 55-36.5q23-24 36.5-55t13.5-66-13.5-66-36.5-55q-24-23-55-36.5t-66-13.5-66 13.5-55 36.5q-23 24-36.5 55t-13.5 66zM235 203l111-69 17 28-96 58v111h-32v-128z" />
<glyph unicode="&#xe652;" d="M42 224q1-44 17-83t46-68q28-29 67.5-45.5t82.5-16.5q45 0 83.5 16.5t68.5 45.5q28 29 45 68 16 36.75 16 78.25v9.5q0 41.25-16 78.25-17 39-45 68-30 29-68.5 45.5t-83.5 16.5q-43 0-82.5-16.5t-67.5-45.5q-30-29-46-68t-17-83zM85 224v4.75q0 32.5 13 61.25 14 31 36 55 25 23 55.5 36.5t66.5 13.5q34 0 65.5-13.5t54.5-36.5q24-24 37-55t14-66q-1-35-14-66t-37-55q-23-23-54.5-36.5t-65.5-13.5q-36 0-66.5 13.5t-55.5 36.5q-22 24-36 55-13 29-13 61.25v4.75zM148 245l1-42h85l1-86h41l1 86h85l1 42h-87l1 86h-43l1-86h-87z" />
<glyph unicode="&#xe653;" d="M64 74q0-8 3.5-16.5t9.5-12.5q5-7 13-10t17-4l298 1q1.75-0.25 3.5-0.25 7 0 13.5 3.25 8 4 13 9 6 6 9.5 13.5t3.5 17.5v297q0 10-3.5 17.5t-9.5 13.5q-5 5-13 9-6.5 3.25-13.5 3.25-1.75 0-3.5-0.25l-298 1q-9-1-17-4t-13-10q-6-4-9.5-12.5t-3.5-16.5v-299zM128 96v21q0 15 14 28t34 20q20 10 42 13.5t38 4.5q16-1 38-4.5t42-13.5q20-7 34-20t14-28v-22zM192 287q0 15 5 26t13 21q9 7 20.5 12.5 9.75 4.75 21.25 4.75 2 0 4.25-0.25 2.25 0.25 4.25 0.25 11.5 0 21.25-4.75 11.5-5.5 20.5-12.5 8-10 13-21t5-26q0-13-5-25t-13-20q-9-9-20.5-13.5t-25.5-5.5q-14 1-25.5 5.5t-20.5 13.5q-8 8-13 20t-5 25z" />
<glyph unicode="&#xe654;" d="M107 139q0-31 11.5-58.5t31.5-46.5q20-21 47.5-32.5t58.5-12.5q31 1 58.5 12.5t47.5 32.5q20 19 31.5 46.5t11.5 58.5v86l-298-1v-85zM107 246l298-1v23q0 17-4 35t-12 32q-8 17-19.5 29.5t-26.5 22.5v-1l45 46-17 16-49-48q-7 3-15 6.5t-16 4.5q-9 4-17.5 4.5t-17.5 1.5q-9-1-17.5-1.5t-17.5-3.5q-8-1-16-4.5t-15-5.5l-49 48-17-18 45-46q-15-8-26.5-21.5t-19.5-28.5q-8-16-12-33t-4-36v-21zM171 310q0 9 5.5 15.5 4.75 5.75 13 5.75 1.25 0 2.5-0.25 1.25 0.25 2.5 0.25 8.25 0 13-5.75 5.5-6.5 5.5-15.5 0-10-5.5-15.5t-15.5-6.5q-10 1-15.5 6.5t-5.5 15.5zM299 309q0 11 5.5 16.5t15.5 6.5q10-1 15.5-6.5t5.5-16.5q0-8-5.5-14.5-4.75-5.75-13-5.75-1.25 0-2.5 0.25-1.25-0.25-2.5-0.25-8.25 0-13 5.75-5.5 6.5-5.5 14.5z" />
<glyph unicode="&#xe655;" d="M43 213q0 24 9 45.5t25 37.5 37.5 25.5 45.5 9.5h224q18 0 33.5-7t26.5-18q12-12 18.5-27.5t6.5-33.5q0-17-6.5-32.5t-18.5-27.5q-11-12-26.5-18.5t-33.5-6.5h-181q-12 0-21.5 4t-16.5 11q-7 8-11.5 17.5t-4.5 20.5q0 12 4.5 21.5t11.5 16.5 16.5 11.5 21.5 4.5h160v-32h-160q-10 0-16-6t-6-16q0-9 6-15t16-6h181q11 0 21 4t17 11q7 8 11 17.5t4 20.5q0 12-4 21.5t-11 16.5-17 11.5-21 4.5h-224q-18 0-33.5-7t-26.5-18q-12-12-18.5-27.5t-6.5-33.5q0-17 6.5-32.5t18.5-27.5q11-12 26.5-18.5t33.5-6.5h203v-32h-203q-24 0-45.5 9.5t-37.5 25.5-25 37-9 45z" />
<glyph unicode="&#xe656;" d="M43 357l27-31 99 80-28 33zM64 202q0-39 15-74.5t41-60.5q26-27 61-41.5t75-15.5q40 1 75 15.5t61 41.5q26 25 41 60.5t15 74.5q0 41-15 75.5t-41 61.5q-26 25-61 40.5-33 14.5-70.25 14.5h-9.5q-37.25 0-70.25-14.5-35-15.5-61-40.5-26-27-41-61.5t-15-75.5zM107 203q0 30 11.5 57.5t31.5 47.5q20 21 47.5 32t58.5 12q31-1 58.5-12t47.5-32q20-20 31.5-47.5t11.5-57.5q0-33-11.5-59.5t-31.5-47.5q-20-19-47.5-31.5-25.5-11.5-54-11.5h-9q-28.5 0-54 11.5-27.5 12.5-47.5 31.5-20 21-31.5 47.5t-11.5 59.5zM235 181l100-63 17 27-85 50v114l-32-1v-127zM343 410l99-85 27 33-98 83z" />
<glyph unicode="&#xe657;" d="M149 181l107 107 107-107h-214z" />
<glyph unicode="&#xe658;" d="M43 224q0-44 16.5-83t45.5-68 68-45.5 83-16.5 83 16.5 68 45.5 45.5 68 16.5 83-16.5 83-45.5 68-68 45.5-83 16.5-83-16.5-68-45.5-45.5-68-16.5-83zM171 267h170l-85-86z" />
<glyph unicode="&#xe659;" d="M43 224q0-44 16.5-83t45.5-68 68-45.5 83-16.5 83 16.5 68 45.5 45.5 68 16.5 83-16.5 83-45.5 68-68 45.5-83 16.5-83-16.5-68-45.5-45.5-68-16.5-83zM128 139q0 16 14 28t34 21q20 8 42 12.5t38 4.5 38-4.5 42-12.5q20-9 34-21t14-28q-10-16-24-28.5t-30-21.5q-17-9-35.5-14t-38.5-5-38.5 5-35.5 14q-16 9-30 21.5t-24 28.5zM192 309q0 14 5 25.5t13 20.5q9 9 20.5 13.5t25.5 4.5 25.5-4.5 20.5-13.5q8-9 13-20.5t5-25.5q0-13-5-25t-13-20q-9-9-20.5-14t-25.5-5-25.5 5-20.5 14q-8 8-13 20t-5 25z" />
<glyph unicode="&#xe65a;" d="M106 181l1-106h105l1 42h-65l1 64h-43zM106 267h43l-1 64h65l-1 42h-105zM298 117l1-42h105l1 106h-43l1-64h-65zM298 373l1-42h63l1-64h41l1 106h-107z" />
<glyph unicode="&#xe65b;" d="M42 388l107-106-1-79h65l-1-192 78 130 87-88 28 28-336 335h1zM148 437l1-47 181-181 33 58h-87l87 170h-215z" />
<glyph unicode="&#xe65c;" d="M43 160h117l64 64-64 64h-117v-128zM192 11h128v117l-64 64-64-64v-117zM192 320l64-64 64 64v117h-128v-117zM288 224l64-64h117v128h-117z" />
<glyph unicode="&#xe65d;" d="M43 160h117l64 64-64 64h-117v-128zM192 11h128v117l-64 64-64-64v-117zM192 320l64-64 64 64v117h-128v-117zM288 224l64-64h117v128h-117z" />
<glyph unicode="&#xe65e;" d="M64 75q0-9 3.5-17t9.5-13q5-6 13-9.5t17-3.5h298q9 0 17 3.5t13 9.5q6 5 9.5 13t3.5 17v298q0 9-3.5 17t-9.5 13q-5 6-13 9.5t-17 3.5h-298q-9 0-17-3.5t-13-9.5q-6-5-9.5-13t-3.5-17v-85h43v85h298v-298h-298v85h-43v-85zM64 203h207l-56-56 30-30 107 107-107 107-30-30 56-56h-207v-42z" />
<glyph unicode="&#xe65f;" d="M128 181l30-30 98 99 98-99 30 30-128 128z" />
<glyph unicode="&#xe660;" d="M128 268l128-129 128 129-30 29-98-98-98 98z" />
<glyph unicode="&#xe661;" d="M43 224q0-44 16.5-83t45.5-68 68-45.5 83-16.5 83 16.5 68 45.5 45.5 68 16.5 83-16.5 83-45.5 68-68 45.5-83 16.5-83-16.5-68-45.5-45.5-68-16.5-83zM128 96l81 175 175 81-81-175zM233 224q0-5 1.5-9t4.5-8q4-3 8-4.5t9-1.5 9 1.5 8 4.5q3 4 4.5 8t1.5 9-1.5 9-4.5 8q-4 3-8 4.5t-9 1.5-9-1.5-8-4.5q-3-4-4.5-8t-1.5-9z" />
<glyph unicode="&#xe662;" d="M43 53q0-8 3-16t9-14 14-9 16-3h81v32q0 12 4.5 22.5t12.5 17.5q8 8 18.5 12.5t22.5 4.5 22.5-4.5 18.5-12.5q8-7 12.5-17.5t4.5-22.5v-32h81q8 0 16 3t14 9 9 14 3 16v86h32q12 0 21.5 4t16.5 11 11.5 17 4.5 21-4.5 21-11.5 17-16.5 11-21.5 4h-32v86q0 8-3 16t-9 14-14 9-16 3h-86v32q0 12-4 21.5t-11 16.5-17 11.5-21 4.5-21-4.5-17-11.5-11-16.5-4-21.5v-32h-86q-8 0-16-3t-14-9-9-14-3-16v-81h32q12 0 22.5-4.5t17.5-12.5q8-8 12.5-18.5t4.5-22.5-4.5-22.5-12.5-18.5q-7-8-17.5-12.5t-22.5-4.5h-32v-81z" />
<glyph unicode="&#xe663;" d="M84 96h1l181 128-181 128zM276 96l183 128-183 128h1z" />
<glyph unicode="&#xe664;" d="M53 224l182-128v256zM245 224l182-128v256z" />
<glyph unicode="&#xe665;" d="M43 299q0 24 9 45.5t25 37.5q15 16 36.5 25t46.5 9q14 0 27-3t26-9q12-6 23-14t20-19q9 11 20 19t23 14q13 6 26 9t27 3q25 0 46.5-9t36.5-25q16-16 25-37.5t9-45.5q0-31-13-59t-37-58q-24-29-58-60.5t-75-68.5l-30-30-30 30q-41 37-75 68.5t-58 60.5q-24 30-37 58t-13 59z" />
<glyph unicode="&#xe666;" d="M43 299q0-31 13-59t37-58q24-29 58-60.5t75-68.5l30-27 30 27q41 38 74.5 70t57.5 61q25 29 38 57t13 58q0 24-9 45.5t-25 37.5q-15 16-36.5 25t-46.5 9q-14 0-27-3t-26-9q-12-6-23-14t-20-19q-9 11-20 19t-23 14q-13 6-26 9t-27 3q-25 0-46.5-9t-36.5-25q-16-16-25-37.5t-9-45.5zM85 299q0 16 6 29.5t16 23.5 23.5 15.5 29.5 5.5q12 0 23.5-3.5t22.5-10.5q10-7 18-16.5t13-20.5h40q4 11 12 20.5t18 16.5 21.5 10.5 23.5 3.5q16 0 29.5-5.5t23.5-15.5 16-23.5 6-29.5q0-24-12-47t-34-49-53-55.5-70-64.5h-2l-2 2q-39 35-70 64t-53 54q-22 26-34 49t-12 47z" />
<glyph unicode="&#xe667;" d="M107 53h298v43h-298v-43zM107 288l149-149 149 149h-85v128h-128v-128h-85z" />
<glyph unicode="&#xe668;" d="M43 96q0-9 3-16.5t9-13.5 14-9.5 16-3.5h342q8 0 16 3.5t14 9.5 9 13.5 3 16.5v213q0 9-3 17t-9 13q-6 6-14 9.5t-16 3.5h-171l-43 43h-128q-8 0-16-3.5t-14-9.5-9-13.5-3-16.5v-256zM222 162l60 107 32-58-52-94h-12zM273 117l30 54h109l6-11-28-43h-117zM286 277l8 11h52l59-107h-64z" />
<glyph unicode="&#xe669;" d="M43 96q0-9 3-16.5t9-13.5 14-9.5 16-3.5h342q8 0 16 3.5t14 9.5 9 13.5 3 16.5v213q0 9-3 17t-9 13q-6 6-14 9.5t-16 3.5h-171l-43 43h-128q-8 0-16-3.5t-14-9.5-9-13.5-3-16.5v-256zM235 117v22q0 10 9.5 18t22.5 13q13 6 28 8.5t25 2.5 25-2.5 28-8.5q13-5 22.5-13t9.5-18v-22h-170zM277 245q0 9 3.5 17t9.5 13q6 6 13.5 9.5t16.5 3.5 16.5-3.5 13.5-9.5q6-5 9.5-13t3.5-17q0-8-3.5-16t-9.5-14-13.5-9-16.5-3-16.5 3-13.5 9-9.5 14-3.5 16z" />
<glyph unicode="&#xe66a;" d="M85 138v171h171v85l171-170-171-172v87z" />
<glyph unicode="&#xe66b;" d="M107 53v43h298v-43h-298zM107 267h85v-128h128v128h85l-149 149z" />
<glyph unicode="&#xe66c;" d="M63 373l1-298q-0.25-1.75-0.25-3.5 0-7 3.25-13.5 4-8 9-13 6-6 13.5-9.5t17.5-3.5h297q10 0 17.5 3.5t13.5 9.5q5 5 9 13 3.25 6.5 3.25 13.5 0 1.75-0.25 3.5l1 298q-1 9-4 17t-10 13q-4 6-12.5 9.5t-16.5 3.5h-299q-8 0-16.5-3.5t-12.5-9.5q-7-5-10-13t-4-17zM148 160h44l-1-43h-42zM148 203l1 42h42l1-42h-44zM148 331h44l-1-43h-42zM212 117l1 43h149l1-43h-151zM212 245h151l-1-42h-149zM212 288l1 43h149l1-43h-151z" />
<glyph unicode="&#xe66d;" d="M43 96q1-9 3.5-16.5t9.5-13.5q5-6 13.5-9.5t15.5-3.5h343q7 0 15.5 3.5t13.5 9.5q7 6 9.5 13.5t3.5 16.5l-1 256q0.25 2 0.25 4 0 6.75-2.75 12.5-3.5 7.5-8.5 13.5-7 6-14.5 9.5t-16.5 3.5h-341q-9 0-16.5-3.5t-14.5-9.5q-5-6-8.5-13.5-2.75-5.75-2.75-12.5 0-2 0.25-4zM85 352l172-107 170 107 1-43-172-106-170 106z" />
<glyph unicode="&#xe66e;" d="M43 97q0-10 3-17t9-14q6-5 14-9 6.5-3.25 12.75-3.25l3.25 0.25 342-1q8 1 16 4t14 10q6 5 9 13t3 16v300l-85-1 43-85-64-1-43 87-43-1 43-85-64-1-43 87-42-1 42-85-64-1-42 87-22-1q-1.5 0.25-3.25 0.25l-12.75-3.25q-8-4-14-9-6-7-9-14t-3-17v-255z" />
<glyph unicode="&#xe66f;" d="M64 76q0-10 3.5-17.5t9.5-13.5q5-5 13-9 6.5-3.25 13.5-3.25 1.75 0 3.5 0.25l298-1q9 1 17 4t13 10q6 4 9.5 12.5t3.5 16.5v299q0 8-3.5 16.5t-9.5 12.5q-5 7-13 10t-17 4l-298-1q-1.75 0.25-3.5 0.25-7 0-13.5-3.25-8-4-13-9-6-6-9.5-13.5t-3.5-17.5v-297zM107 97l74 95v1l54-65 74 97 96-129z" />
<glyph unicode="&#xe670;" d="M9 194l119-119 30 30-120 119zM130 194l120-119 256 256-32 30-224-227-90 90zM220 226l30-30 134 135-30 30z" />
<glyph unicode="&#xe671;" d="M63 373l1-298q-0.25-1.75-0.25-3.5 0-7 3.25-13.5 4-8 9-13 6-6 13.5-9.5t17.5-3.5h297q10 0 17.5 3.5t13.5 9.5q5 5 9 13 3.25 6.5 3.25 13.5 0 1.75-0.25 3.5l1 298q-1 9-4 17t-10 13q-4 6-12.5 9.5t-16.5 3.5h-299q-8 0-16.5-3.5t-12.5-9.5q-7-5-10-13t-4-17zM165 117l70 107-70 107h44l46-81 48 81h42l-68-107 68-107h-42l-48 81-46-81h-44z" />
<glyph unicode="&#xe672;" d="M63 373l1-298q-0.25-1.75-0.25-3.5 0-7 3.25-13.5 4-8 9-13 6-6 13.5-9.5t17.5-3.5h297q10 0 17.5 3.5t13.5 9.5q5 5 9 13 3.25 6.5 3.25 13.5 0 1.75-0.25 3.5l1 298q-1 9-4 17t-10 13q-4 6-12.5 9.5t-16.5 3.5h-299q-8 0-16.5-3.5t-12.5-9.5q-7-5-10-13t-4-17zM170 117l1 214h90q13 0 21.5-1.5t16.5-3.5q6-3 12-6.5t10-8.5q7-4 10-9.5t6-12.5q2-6 3-12.5 0.5-3.25 0.5-6.875t-0.5-7.625q0.5-3.25 0.5-6.25 0-4.5-1-8.75-1.5-7-2.5-13-4-6-7-11.5t-9-9.5q-4-4-10-7t-12-5q-8-2-16.5-3.5t-21.5-1.5h-52l-1-2 1-77h-39zM208 224l1 77h48q7 0 11-1t9-2q3-2 7-4.5t5-5.5q6-6 8.5-12t3.5-14q-1-9-3.5-15t-8.5-12q-4-5-11.5-8t-17.5-3h-52z" />
<glyph unicode="&#xe673;" d="M63 373l1-298q-0.25-1.75-0.25-3.5 0-7 3.25-13.5 4-8 9-13 6-6 13.5-9.5t17.5-3.5h297q10 0 17.5 3.5t13.5 9.5q5 5 9 13 3.25 6.5 3.25 13.5 0 1.75-0.25 3.5l1 298q-1 9-4 17t-10 13q-4 6-12.5 9.5t-16.5 3.5h-299q-8 0-16.5-3.5t-12.5-9.5q-7-5-10-13t-4-17zM130 331h35l33-160 42 160h31l42-160 33 160h35l-50-214h-32l-44 160-42-160h-33z" />
<glyph unicode="&#xe674;" d="M63 373l1-298q-0.25-1.75-0.25-3.5 0-7 3.25-13.5 4-8 9-13 6-6 13.5-9.5t17.5-3.5h297q10 0 17.5 3.5t13.5 9.5q5 5 9 13 3.25 6.5 3.25 13.5 0 1.75-0.25 3.5l1 298q-1 9-4 17t-10 13q-4 6-12.5 9.5t-16.5 3.5h-299q-8 0-16.5-3.5t-12.5-9.5q-7-5-10-13t-4-17zM123 277q1 16 6.5 30.5t17.5 25.5q10 11 25 17t30 6q17 0 30.5-6t25.5-17q10-11 17-25.5 6-12.75 6-26.5v-4q1-8-1-15l-4-14q-4-6-7.5-12t-9.5-12h125l-1-128h-127l-1 124q-5-5-11.5-9t-11.5-7q-8-3-14.5-4.5t-15.5-1.5q-15 0-30 6.5t-25 17.5q-12 11-17.5 25t-6.5 30z" />
<glyph unicode="&#xe675;" d="M64 75q0-9 3.5-17t9.5-13q5-6 13-9.5t17-3.5h298q9 0 17 3.5t13 9.5q6 5 9.5 13t3.5 17v298q0 9-3.5 17t-9.5 13q-5 6-13 9.5t-17 3.5h-298q-9 0-17-3.5t-13-9.5q-6-5-9.5-13t-3.5-17v-298zM124 105.5v5.5q1 4 3.5 9.5t7.5 11.5 12.5 12 16.5 12q3 1 8 4t11 6q3 4 5.5 8.5t4.5 9.5l6 10t6 11q4 8 7 16l6 16q3 7 5.5 14.5t4.5 15.5q-3 9-5 17t-3 16q-0.5 4-0.5 8.25t0.5 8.75q1 9 4 20 2 6 6.5 11.5t10.5 5.5h4q4 0 7-1.5t6-2.5q6-6 8-14.5 1.25-5.75 1.25-12.5 0-3.25-0.25-7-1-10-3.5-21.5t-5.5-21.5v-2q3-9 7-17t9-15q4-7 8.5-13t9.5-11q5-3 9-6t10-6q8 0 15 1t13 1q10 0 18-1t14-3q6-1 10.5-4t6.5-7q2-3 2-6.5v-6.5l-3-6t-5-7q-3-1-8-2.5t-11-1.5q-7 0-14.5 1t-16.5 2q-8 2-16.5 5t-16.5 7q-14-2-26-3.5t-23-3.5q-10-2-19.5-4.5t-17.5-5.5q-1 0-1.5-0.5t-2.5-1.5q-10-17-18.5-29.5t-16.5-20.5-15.5-12-13.5-4h-5t-3 2l-11 6v2q-2 3-2 5.5zM139 109q4 1 9 3.5t10 7.5 9.5 12.5 9.5 16.5v0q2 0 1 0h-1q-3-1-6-2.5t-5-3.5q-11-10-18.5-19.5t-8.5-14.5zM209 173h4q11 4 21 7t19 6q9 2 16.5 3.5t14.5 2.5q-3 2-5 3.5t-4 2.5q-4 5-8 10.5t-9 12.5q-4 6-8 12.5t-7 13.5q-1-5-3.5-11t-5.5-13q-3-6-6-13l-6-14q-3-6-6.5-11.5t-6.5-11.5zM238 322q0-5 0.5-11.5t2.5-13.5v0q2 6 3 10t1 9v4q2 8 2 14t-2 7v2l-2 3v-1.5t-2-1.5q-2-4-2.5-9.5t-0.5-11.5zM329 188q5-3 10.5-5t10.5-3q6-1 10.5-2t8.5-1h6v2l-1 0.5t-1 1.5q-1 2-9.5 5.5t-30.5 3.5h-4v-2z" />
<glyph unicode="&#xe676;" d="M63 373l1-298q-0.25-1.75-0.25-3.5 0-7 3.25-13.5 4-8 9-13 6-6 13.5-9.5t17.5-3.5h297q10 0 17.5 3.5t13.5 9.5q5 5 9 13 3.25 6.5 3.25 13.5 0 1.75-0.25 3.5l1 298q-1 9-4 17t-10 13q-4 6-12.5 9.5t-16.5 3.5h-299q-8 0-16.5-3.5t-12.5-9.5q-7-5-10-13t-4-17zM106 309h299l-1-170h-297z" />
<glyph unicode="&#xe677;" d="M63 373l1-298q-0.25-1.75-0.25-3.5 0-7 3.25-13.5 4-8 9-13 6-6 13.5-9.5t17.5-3.5h297q10 0 17.5 3.5t13.5 9.5q5 5 9 13 3.25 6.5 3.25 13.5 0 1.75-0.25 3.5l1 298q-1 9-4 17t-10 13q-4 6-12.5 9.5t-16.5 3.5h-299q-8 0-16.5-3.5t-12.5-9.5q-7-5-10-13t-4-17zM106 181l1 86h127l1 64 105-107-105-107h-1l1 64h-129z" />
<glyph unicode="&#xe678;" d="M64 75q0-9 3.5-17t9.5-13q5-6 13-9.5t17-3.5h298q9 0 17 3.5t13 9.5q6 5 9.5 13t3.5 17v298q0 9-3.5 17t-9.5 13q-5 6-13 9.5t-17 3.5h-21v43h-43v-43h-170v43h-43v-43h-21q-9 0-17-3.5t-13-9.5q-6-5-9.5-13t-3.5-17v-298zM107 75v234h298v-234h-298zM256 117h107v107h-107v-107z" />
<glyph unicode="&#xe679;" d="M43 224q0-44 16.5-83t45.5-68 68-45.5 83-16.5 83 16.5 68 45.5 45.5 68 16.5 83-16.5 83-45.5 68-68 45.5-83 16.5-83-16.5-68-45.5-45.5-68-16.5-83zM235 117v43h42v-43h-42zM235 203v128h42v-128h-42z" />
<glyph unicode="&#xe67a;" d="M63 75q1-10 6.5-16t15.5-6h21q10 0 15.5 6t6.5 16l-1 21h257l-1-21q1-10 6.5-16t15.5-6h21q10 0 15.5 6t6.5 16l-1 170-44 128q-2 5-5 9t-8 7q-3 3-8 4.5t-9 1.5h-235q-5 0-10-1.5t-8-4.5q-5-3-7.5-7t-4.5-9l-44-128zM106 192q1 6 3 12t7 10q4 5 10 7.5t12 2.5q7 0 12.5-2.5t10.5-7.5q3-4 6.5-10t2.5-12q1-6-2.5-12t-6.5-10q-5-5-10.5-7.5t-12.5-2.5q-6 0-12 2.5t-10 7.5q-5 4-7 10t-3 12zM106 267l33 96h233l33-96h-299zM341 192q-0.25 1.25-0.25 2.75 0 4.75 2.75 9.25 3.5 6 6.5 10 5 5 10.5 7.5t12.5 2.5q6 0 12-2.5t10-7.5q5-4 7-10t3-12q-1-6-3-12t-7-10q-4-5-10-7.5t-12-2.5q-7 0-12.5 2.5t-10.5 7.5q-3 4-6.5 10-2.75 4.75-2.75 9.25 0 1.5 0.25 2.75z" />
<glyph unicode="&#xe67b;" d="M85 53q0-8 3.5-16t9.5-14 13.5-9 16.5-3h256q9 0 16.5 3t13.5 9 9.5 14 3.5 16v256l-128 128h-171q-9 0-16.5-3t-13.5-9-9.5-14-3.5-16v-342zM277 288v117l118-117h-118z" />
<glyph unicode="&#xe67c;" d="M43 32h426v299h-213v85h-213v-384zM85 75v42h43v-42h-43zM85 160v43h43v-43h-43zM85 245v43h43v-43h-43zM85 331v42h43v-42h-43zM171 75v42h42v-42h-42zM171 160v43h42v-43h-42zM171 245v43h42v-43h-42zM171 331v42h42v-42h-42zM256 75v42h43v43h-43v43h43v42h-43v43h171v-213h-171zM341 117h43v43h-43v-43zM341 203h43v42h-43v-42z" />
<glyph unicode="&#xe67d;" d="M43 224q0-44 16.5-83t45.5-68 68-45.5 83-16.5 83 16.5 68 45.5 45.5 68 16.5 83-16.5 83-45.5 68-68 45.5-83 16.5-83-16.5-68-45.5-45.5-68-16.5-83zM85 224q0 35 13.5 66t36.5 55q24 23 55 36.5t66 13.5q14 0 28-2.5t27-7.5q14-4 26-11t24-16l-239-239q-9 12-16 24t-11 26q-5 13-7.5 27t-2.5 28zM151 90l239 239q9-12 16-24t11-26q5-13 7.5-27t2.5-28q0-35-13.5-66t-36.5-55q-24-23-55-36.5t-66-13.5q-14 0-28 2.5t-27 7.5q-14 4-26 11t-24 16z" />
<glyph unicode="&#xe67e;" d="M63 373l1-298q-0.25-1.75-0.25-3.5 0-7 3.25-13.5 4-8 9-13 6-6 13.5-9.5t17.5-3.5h297q10 0 17.5 3.5t13.5 9.5q5 5 9 13 3.25 6.5 3.25 13.5 0 1.75-0.25 3.5l1 298q-1 9-4 17t-10 13q-4 6-12.5 9.5t-16.5 3.5h-299q-8 0-16.5-3.5t-12.5-9.5q-7-5-10-13t-4-17zM106 181l86 86 84-86 129 145-1-64-127-145-86 86-84-86z" />
<glyph unicode="&#xe67f;" d="M43 96q0-9 3-16.5t9-13.5 14-9.5 16-3.5h342q8 0 16 3.5t14 9.5 9 13.5 3 16.5v213q0 6-1.5 11t-3.5 10q-3 4-6.5 8t-7.5 8l-194 113-194-113q-4-4-7.5-8t-6.5-8q-2-5-3.5-10t-1.5-11v-213zM79 314l177 102 177-102-177-111z" />
<glyph unicode="&#xe680;" d="M63 373l1-298q-0.25-1.75-0.25-3.5 0-7 3.25-13.5 4-8 9-13 6-6 13.5-9.5t17.5-3.5h297q10 0 17.5 3.5t13.5 9.5q5 5 9 13 3.25 6.5 3.25 13.5 0 1.75-0.25 3.5l1 298q-1 9-4 17t-10 13q-4 6-12.5 9.5t-16.5 3.5h-299q-8 0-16.5-3.5t-12.5-9.5q-7-5-10-13t-4-17zM148 160h151l-1-43h-149zM148 203l1 42h213l1-42h-215zM148 331h215l-1-43h-213z" />
<glyph unicode="&#xe681;" d="M43 224q0-44 16.5-83t45.5-68 68-45.5 83-16.5 83 16.5 68 45.5 45.5 68 16.5 83-16.5 83-45.5 68-68 45.5-83 16.5-83-16.5-68-45.5-45.5-68-16.5-83zM79 224q0 6 0.5 12.5t1.5 12.5q0 7 1.5 12.5t2.5 11.5q11 13 24 22.5t28 12.5q5.25 1 11 1 11.25 0 24-4 19-6 41-23l76-51q76-51 133-56 0-5-1.5-9.5t-3.5-9.5-4.5-10-5.5-9q-7-4-15.5-7.5t-18.5-6.5q-11-4-23.5-6t-27.5-2-29.5 3-28.5 7q-14 5-29.5 10t-31.5 10-26.5 10.5-19.5 10.5-17.5 8-17.5 3q-6 0-10-2.5t-7-6.5-5-8.5-4-8.5q-4 8-7 17l-6 18q-2 9-3 18.5t-1 19.5zM134 350q6 5 12.5 10.5t13.5 9.5q7 5 14.5 9t15.5 7q7.25 0.25 14.75 0.25 15 0 30.25-1.25 23-2 45-9 21-7 39.5-19.5t32.5-32.5l28-39.5q16-22.5 27.25-22.5 8.75 0 14.75 13 2-5 3-11t2-13q1-6 1.5-12t0.5-13v-19q-16 2-35 11t-40 24-43.5 34.5-45.5 41.5q-23 21-43 30t-37 11q-3.75 0.25-7.25 0.25-12.5 0-22.75-2.75-13-3.5-21-6.5zM181 84q-1 5-1 9t1 7q2 7 9.5 9 2.5 0.75 5.5 0.75 6.25 0 15-2.75l52.5-12.5q18.5-4.5 38.75-4.5 37 0 79.75 15-11-13-25-23.5t-30-17.5-34-11-37-4q-9 0-17.5 1t-17.5 2q-9 2-17 4.5t-16 5.5q-5 12-7 22z" />
<glyph unicode="&#xe682;" d="M73 194l119-119 256 256-30 30-226-227-90 90z" />
<glyph unicode="&#xe683;" d="M63 373l1-298q-0.25-1.75-0.25-3.5 0-7 3.25-13.5 4-8 9-13 6-6 13.5-9.5t17.5-3.5h297q10 0 17.5 3.5t13.5 9.5q5 5 9 13 3.25 6.5 3.25 13.5 0 1.75-0.25 3.5l1 298q-1 9-4 17t-10 13q-4 6-12.5 9.5t-16.5 3.5h-299q-8 0-16.5-3.5t-12.5-9.5q-7-5-10-13t-4-17zM106 288h86l-1 85h44l-1-85h171l-1-43h-169l-1-170h-42l-1 170h-84z" />
<glyph unicode="&#xe684;" d="M63 352l1-256q-0.25-1.75-0.25-3.5 0-7 3.25-13 4-7.5 9-13.5 6-6 13.5-9.5t17.5-3.5h297q10 0 17.5 3.5t13.5 9.5q5 6 9 13.5 3.25 6 3.25 13 0 1.75-0.25 3.5l1 256q-1 9-4 16.5t-10 13.5q-4 6-12.5 9.5t-16.5 3.5h-299q-8 0-16.5-3.5t-12.5-9.5q-7-6-10-13.5t-4-16.5zM106 181h193l-1-85h-191zM106 203l1 85h191l1-85h-193zM319 288h86l-1-192h-84z" />
<glyph unicode="&#xe685;" d="M26 160l72-128 141 245-75 128zM134 32h280l72 128h-279zM183 437l148-256h145l-147 256h-146z" />
<glyph unicode="&#xe686;" d="M107 139h64v-64h42v106h-106v-42zM107 267h106v106h-42v-64h-64v-42zM299 75h42v64h64v42h-106v-106zM299 267h106v42h-64v64h-42v-106z" />
<glyph unicode="&#xe687;" d="M107 75q1-9 3.5-17t9.5-13q5-6 13.5-9.5t15.5-3.5h215q7 0 15.5 3.5t13.5 9.5q7 5 9.5 13t3.5 17l-1 298q0.25 2 0.25 4 0 6.75-2.75 13-3.5 8-8.5 13-7 6-14.5 9.5t-16.5 3.5h-213q-9 0-16.5-3.5t-14.5-9.5q-5-5-8.5-13-2.75-6.25-2.75-13 0-2 0.25-4zM149 75l1 298h213l1-298h-215z" />
<glyph unicode="&#xe688;" d="M128 11h38l62 172 49-66v-106h39v136l-54 96 15 62 24-38h104v38h-76l-43 70q-3 4-6.5 7.5t-7.5 6.5-8.5 4.5-9.5 1.5q-3 0-5.5-0.5t-5.5-1.5l-115-37v-111h38v79l45 15zM260 437q0-8 3-15t8-12q6-5 13-8t15-3 15 3 12 8 8 12 3 15-3 15-8 13q-5 5-12 8t-15 3-15-3-13-8q-5-6-8-13t-3-15z" />
<glyph unicode="&#xe689;" d="M85 149q0-15 6-28.5t16-23.5q11-10 24.5-16t28.5-6l-32-32v-11h256v11l-32 32q15 0 28.5 6t24.5 16q10 10 16 23.5t6 28.5v224q0 28-13.5 45t-36.5 26q-24 9-55 12t-66 3-66-3-55-12q-23-9-36.5-26t-13.5-45v-224zM128 267v106h256v-106h-256zM213 160q0 9 3.5 16.5t9.5 13.5 13.5 9.5 16.5 3.5 16.5-3.5 13.5-9.5 9.5-13.5 3.5-16.5-3.5-16.5-9.5-13.5-13.5-9.5-16.5-3.5-16.5 3.5-13.5 9.5-9.5 13.5-3.5 16.5z" />
<glyph unicode="&#xe68a;" d="M43 224q0-44 16.5-83t45.5-68 68-45.5 83-16.5q26 0 51 6t47 17q22 12 41 28t34 36l-56 32q-10-13-23-23t-28-17q-15-8-31.5-11.5t-34.5-3.5q-31 0-58.5 11.5t-47.5 31.5-31.5 47.5-11.5 58.5q0 28 9.5 53t26.5 45q18 19 41 32t51 17v64q-41-3-76-21t-61-46-40.5-65-14.5-79zM277 371q28-4 51-17t41-32q17-20 26.5-45t9.5-53q0-7-0.5-14t-2.5-13q-1-7-3-13.5t-4-12.5l55-32q5 9 8.5 19.5t6.5 21.5q2 11 3 22.5t1 23.5q0 41-14.5 77t-40.5 64-61 46-76 22v-64z" />
<glyph unicode="&#xe68b;" d="M43 117h42v299h256v43h-256q-8 0-16-3.5t-14-9.5-9-13.5-3-16.5v-299zM128 32q0-9 3.5-16.5t9.5-13.5q5-6 13-9.5t17-3.5h234q9 0 17 3.5t13 9.5q6 6 9.5 13.5t3.5 16.5v299q0 8-3.5 16t-9.5 14q-5 6-13 9t-17 3h-234q-9 0-17-3t-13-9q-6-6-9.5-14t-3.5-16v-299zM171 32v299h234v-299h-234z" />
<glyph unicode="&#xe68c;" d="M183 126l30-30 128 128-128 128-30-30 99-98z" />
<glyph unicode="&#xe68d;" d="M107 352h298v43h-74l-22 21h-106l-22-21h-74v-43zM128 75q0-9 3.5-17t9.5-13q5-6 13-9.5t17-3.5h170q9 0 17 3.5t13 9.5q6 5 9.5 13t3.5 17v256h-256v-256z" />
<glyph unicode="&#xe68e;" d="M85 224l97-98 31 30-69 68 69 68-31 30zM106 32q1-9 3.5-16.5t9.5-13.5q5-6 13.5-9.5t15.5-3.5h215q7 0 15.5 3.5t13.5 9.5q7 6 9.5 13.5t3.5 16.5l-1 85h-41l-1-42h-213l-1 42h-41zM106 416l1-85h41l1 42h213l1-42h41l1 85q-1 9-3.5 16.5t-9.5 13.5q-5 6-13.5 9.5t-15.5 3.5h-215q-7 0-15.5-3.5t-13.5-9.5q-7-6-9.5-13.5t-3.5-16.5zM299 156l29-30 99 98-99 98-29-30 67-68z" />
<glyph unicode="&#xe68f;" d="M85 160q0-9 3.5-16.5t9.5-13.5 13.5-9.5 16.5-3.5 16.5 3.5 13.5 9.5 9.5 13.5 3.5 16.5-3.5 16.5-9.5 13.5-13.5 9.5-16.5 3.5-16.5-3.5-13.5-9.5-9.5-13.5-3.5-16.5zM85 288q0-9 3.5-16.5t9.5-13.5 13.5-9.5 16.5-3.5 16.5 3.5 13.5 9.5 9.5 13.5 3.5 16.5-3.5 16.5-9.5 13.5-13.5 9.5-16.5 3.5-16.5-3.5-13.5-9.5-9.5-13.5-3.5-16.5zM85 416q0-9 3.5-16.5t9.5-13.5 13.5-9.5 16.5-3.5 16.5 3.5 13.5 9.5 9.5 13.5 3.5 16.5-3.5 16.5-9.5 13.5-13.5 9.5-16.5 3.5-16.5-3.5-13.5-9.5-9.5-13.5-3.5-16.5zM213 32q0-9 3.5-16.5t9.5-13.5 13.5-9.5 16.5-3.5 16.5 3.5 13.5 9.5 9.5 13.5 3.5 16.5-3.5 16.5-9.5 13.5-13.5 9.5-16.5 3.5-16.5-3.5-13.5-9.5-9.5-13.5-3.5-16.5zM213 160q0-9 3.5-16.5t9.5-13.5 13.5-9.5 16.5-3.5 16.5 3.5 13.5 9.5 9.5 13.5 3.5 16.5-3.5 16.5-9.5 13.5-13.5 9.5-16.5 3.5-16.5-3.5-13.5-9.5-9.5-13.5-3.5-16.5zM213 288q0-9 3.5-16.5t9.5-13.5 13.5-9.5 16.5-3.5 16.5 3.5 13.5 9.5 9.5 13.5 3.5 16.5-3.5 16.5-9.5 13.5-13.5 9.5-16.5 3.5-16.5-3.5-13.5-9.5-9.5-13.5-3.5-16.5zM213 416q0-9 3.5-16.5t9.5-13.5 13.5-9.5 16.5-3.5 16.5 3.5 13.5 9.5 9.5 13.5 3.5 16.5-3.5 16.5-9.5 13.5-13.5 9.5-16.5 3.5-16.5-3.5-13.5-9.5-9.5-13.5-3.5-16.5zM341 160q0-9 3.5-16.5t9.5-13.5 13.5-9.5 16.5-3.5 16.5 3.5 13.5 9.5 9.5 13.5 3.5 16.5-3.5 16.5-9.5 13.5-13.5 9.5-16.5 3.5-16.5-3.5-13.5-9.5-9.5-13.5-3.5-16.5zM341 288q0-9 3.5-16.5t9.5-13.5 13.5-9.5 16.5-3.5 16.5 3.5 13.5 9.5 9.5 13.5 3.5 16.5-3.5 16.5-9.5 13.5-13.5 9.5-16.5 3.5-16.5-3.5-13.5-9.5-9.5-13.5-3.5-16.5zM341 416q0-9 3.5-16.5t9.5-13.5 13.5-9.5 16.5-3.5 16.5 3.5 13.5 9.5 9.5 13.5 3.5 16.5-3.5 16.5-9.5 13.5-13.5 9.5-16.5 3.5-16.5-3.5-13.5-9.5-9.5-13.5-3.5-16.5z" />
<glyph unicode="&#xe690;" d="M21 331h87l-1-214q1-8 3.5-16t9.5-14q5-6 13.5-9t15.5-3h215l-1-86h43l-1 86h87l-1 42h-341l-1 342h-41l-1-86h-85zM192 331h172l-1-171h43l-1 171q0.25 1.75 0.25 3.5 0 6.25-2.75 12.5-3.5 8-8.5 14-7 6-14.5 9t-16.5 3h-170z" />
<glyph unicode="&#xe691;" d="M43 224q0-9 6-15l192-192q6-6 15-6t15 6l192 192q6 6 6 15t-6 15l-192 192q-6 6-15 6t-15-6l-192-192q-6-6-6-15zM171 160v85q0 10 5.5 16t15.5 6h107v53l74-75-74-74v53h-86v-64h-42z" />
<glyph unicode="&#xe692;" d="M0 117q0-22 8.5-41.5t22.5-33.5q14-15 33.5-23t42.5-8q22 0 41.5 8t33.5 23q15 14 23 33.5t8 41.5q0 23-8 42.5t-23 33.5q-14 14-33.5 22.5t-41.5 8.5q-23 0-42.5-8.5t-33.5-22.5-22.5-33.5-8.5-42.5zM32 117q0 16 6 29.5t16 23.5 23.5 16 29.5 6q15 0 28.5-6t23.5-16 16-23.5 6-29.5q0-15-6-28.5t-16-23.5-23.5-16-28.5-6q-16 0-29.5 6t-23.5 16-16 23.5-6 28.5zM149 277q0-4 1.5-9t3.5-9 5-7.5 7-6.5l73-42v-107h38v139l-47 36 49 49 37-53h89v38h-68l-40 70q-3 4-6 7.5t-7 5.5-9 3.5-10 1.5q-8 0-14.5-3t-11.5-8l-79-79q-5-5-8-11.5t-3-14.5zM299 117q0-22 8-41.5t23-33.5q14-15 33.5-23t41.5-8q23 0 42.5 8t33.5 23q14 14 22.5 33.5t8.5 41.5q0 23-8.5 42.5t-22.5 33.5-33.5 22.5-42.5 8.5q-22 0-41.5-8.5t-33.5-22.5q-15-14-23-33.5t-8-42.5zM303 416q0-8 3-15t8-12 12-8 15-3 15 3 13 8q5 5 8 12t3 15-3 15-8 12q-6 5-13 8t-15 3-15-3-12-8-8-12-3-15zM331 117q0 16 6 29.5t16 23.5 23.5 16 28.5 6q16 0 29.5-6t23.5-16 16-23.5 6-29.5q0-15-6-28.5t-16-23.5-23.5-16-29.5-6q-15 0-28.5 6t-23.5 16-16 23.5-6 28.5z" />
<glyph unicode="&#xe693;" d="M85 139q0-7 1.5-14t4.5-12q3-7 7-11.5t9-9.5v-38q0-10 5.5-15.5t15.5-6.5l21 1q1.25-0.25 2.5-0.25 8.25 0 13.5 5.75 6 6.5 6 14.5v23l170-1v-21q0-10 6-15.5t16-6.5l21 1q1.25-0.25 2.5-0.25 8.25 0 13 5.75 5.5 6.5 5.5 14.5v40q5 3 9 8.5t7 10.5q3 7 4.5 13t1.5 15v212q0 29-13.5 45.5t-36.5 26.5q-24 8-55 11-23.25 2.25-48.75 2.25-8.5 0-17.25-0.25-8.75 0.25-17.25 0.25-25.5 0-48.75-2.25-31-3-55-11-23-10-36.5-26.5t-13.5-45.5v-213zM128 149q0 8 2.5 13t7.5 11q4 3 10 6t12 2q6 1 12-2t10-6q5-6 7.5-11t2.5-13q0-5-2.5-11.5t-7.5-9.5q-4-5-10-7.5t-12-3.5q-6 1-12 3.5t-10 7.5q-5 3-7.5 9.5t-2.5 11.5zM128 246v106l256 1v-108zM320 150q0 6 2.5 12t7.5 10q4 5 10 7t12 3q6-1 12-3t10-7q5-4 7.5-10t2.5-12q0-7-2.5-12.5t-7.5-10.5q-4-3-10-6.5-4.75-2.75-9.25-2.75l-2.75 0.25q-1.25-0.25-2.75-0.25l-9.25 2.75q-6 3.5-10 6.5-5 5-7.5 10.5t-2.5 12.5z" />
<glyph unicode="&#xe694;" d="M128 416l1-299q-0.25-1.5-0.25-3.25 0-6.5 3.25-12.75 4-8 9-14 6-6 13.5-9t17.5-3h169q10 0 17.5 3t13.5 9q5 6 9 14 3.25 6.5 3.25 12.75 0 1.5-0.25 3.25l1 299q-1 9-4 16.5t-10 13.5q-4 6-12.5 9.5t-16.5 3.5h-171q-8 0-16.5-3.5t-12.5-9.5q-7-6-10-13.5t-4-16.5zM171-11h171l-1 43h-169zM171 373h171l-1-213h-169z" />
<glyph unicode="&#xe695;" d="M43 224q1-35 14-66t37-55q22-23 53.5-36.5t65.5-13.5q37 0 67.5 13.5t54.5 36.5q22 24 36 55 13 29 13 61.25v9.5q0 32.5-13 61.25-14 31-36 55-24 23-54.5 36.5t-67.5 13.5q-34 0-65.5-13.5t-53.5-36.5q-24-24-37-55t-14-66zM172 224q-0.25 2-0.25 4 0 6.75 2.75 12.5 3.5 7.5 8.5 13.5 7 6 14.5 9.5t16.5 3.5q8 0 16.5-3.5t12.5-9.5q7-6 10-13.5t4-16.5q-1-9-4-16.5t-10-13.5q-4-6-12.5-9.5t-16.5-3.5q-9 0-16.5 3.5t-14.5 9.5q-5 6-8.5 13.5-2.75 5.75-2.75 12.5 0 2 0.25 4zM427 139h43l-1 42h-41zM427 224h43l-1 107h-41z" />
<glyph unicode="&#xe696;" d="M64 75q0-9 3.5-17t9.5-13q5-6 13-9.5t17-3.5h85v43h-85v85h-43v-85zM64 288h43v85h85v43h-85q-9 0-17-3.5t-13-9.5q-6-5-9.5-13t-3.5-17v-85zM320 32h85q9 0 17 3.5t13 9.5q6 5 9.5 13t3.5 17v85h-43v-85h-85v-43zM320 373h85v-85h43v85q0 9-3.5 17t-9.5 13q-5 6-13 9.5t-17 3.5h-85v-43z" />
<glyph unicode="&#xe697;" d="M63 331l1-214q-0.25-1.5-0.25-3.25 0-6.25 3.25-12.75 4-8 9-14 6-6 13.5-9t17.5-3h297q10 0 17.5 3t13.5 9q5 6 9 14 3.25 6.5 3.25 12.75 0 1.75-0.25 3.25l1 214q-1 8-4 16t-10 14q-4 6-12.5 9t-16.5 3h-299q-8 0-16.5-3t-12.5-9q-7-6-10-14t-4-16zM106 331h299l-1-214h-297z" />
<glyph unicode="&#xe698;" d="M43 139q0-8 3-16.5t9-12.5q6-7 14-10t16-4l299 1 85-86v384q0 9-3 16.5t-9 14.5q-6 5-14 8.5-6.25 2.75-12.5 2.75l-3.5-0.25-342 1q-8-1-16-3.5t-14-9.5q-6-5-9-13.5t-3-15.5v-257zM128 182v42l256 1v-44zM128 245v44l256-1v-42zM128 310v42l256 1v-44z" />
<glyph unicode="&#xe699;" d="M43 96q0-18 6.5-33.5t18.5-26.5q11-12 26.5-18.5t33.5-6.5 33.5 6.5 26.5 18.5q12 11 18.5 26.5t6.5 33.5q0 5-0.5 9.5t-1.5 8.5-2.5 8-3.5 8l51 51 149-149h86l-286 286q2 4 3.5 8t2.5 8 1.5 8.5 0.5 9.5q0 18-6.5 33.5t-18.5 26.5q-11 12-26.5 18.5t-33.5 6.5-33.5-6.5-26.5-18.5q-12-11-18.5-26.5t-6.5-33.5 6.5-33.5 18.5-26.5q11-12 26.5-18.5t33.5-6.5q5 0 9.5 0.5t8.5 1.5 8 2.5 8 3.5l51-51-51-51q-4 2-8 3.5t-8 2.5-8.5 1.5-9.5 0.5q-18 0-33.5-6.5t-26.5-18.5q-12-11-18.5-26.5t-6.5-33.5zM85 96q0 9 3.5 16.5t9.5 13.5 13.5 9.5 16.5 3.5 16.5-3.5 13.5-9.5 9.5-13.5 3.5-16.5-3.5-16.5-9.5-13.5-13.5-9.5-16.5-3.5-16.5 3.5-13.5 9.5-9.5 13.5-3.5 16.5zM85 352q0 9 3.5 16.5t9.5 13.5 13.5 9.5 16.5 3.5 16.5-3.5 13.5-9.5 9.5-13.5 3.5-16.5-3.5-16.5-9.5-13.5-13.5-9.5-16.5-3.5-16.5 3.5-13.5 9.5-9.5 13.5-3.5 16.5zM245 224q0 5 3 8t8 3 8-3 3-8-3-8-8-3-8 3-3 8zM277 288l43-43 171 171h-86z" />
<glyph unicode="&#xe69a;" d="M85 96q0-9 3.5-16.5t9.5-13.5 13.5-9.5 16.5-3.5h256q9 0 16.5 3.5t13.5 9.5 9.5 13.5 3.5 16.5v256q0 9-3.5 16.5t-9.5 13.5-13.5 9.5-16.5 3.5h-256q-9 0-16.5-3.5t-13.5-9.5-9.5-13.5-3.5-16.5v-256zM128 96v256h256v-256h-256z" />
<glyph unicode="&#xe69b;" d="M63 53q1-8 4-16t10-14q4-6 12.5-9t16.5-3h299q8 0 16.5 3t12.5 9q7 6 10 14t4 16l-1 342q0.25 1.5 0.25 3.25 0 6.5-3.25 12.75-4 8-9 14-6 6-13.5 9t-17.5 3h-89q-2 10-8.5 18t-13.5 13q-9 6-18 9t-20 3q-9 0-19-3t-17-9q-9-5-14.5-13t-9.5-18h-88q-10 0-17.5-3t-13.5-9q-5-6-9-14-3.25-6.5-3.25-12.75 0-1.5 0.25-3.25zM106 395h43l-1-64h215l-1 64h43l-1-342h-297zM234 416q1 10 6 15.5t16 5.5q9 0 15-5.5 5.25-4.75 5.25-12.75 0-1.25-0.25-2.75 0.25-1.5 0.25-2.75 0-8-5.25-12.75-6-5.5-15-5.5-11 0-16 5.5t-6 15.5z" />
<glyph unicode="&#xe69c;" d="M43 96q1-9 3.5-16.5t9.5-13.5q5-6 13.5-9.5t15.5-3.5h343q7 0 15.5 3.5t13.5 9.5q7 6 9.5 13.5t3.5 16.5l-1 256q0.25 2 0.25 4 0 6.75-2.75 12.5-3.5 7.5-8.5 13.5-7 6-14.5 9.5t-16.5 3.5h-341q-9 0-16.5-3.5t-14.5-9.5q-5-6-8.5-13.5-2.75-5.75-2.75-12.5 0-2 0.25-4zM85 96l1 128h341l1-128h-343zM85 352h343l-1-43h-341z" />
<glyph unicode="&#xe69d;" d="M85 149q0-15 6-28.5t16-23.5q11-10 24.5-16t28.5-6l-32-32v-11h256v11l-32 32q15 0 28.5 6t24.5 16q10 10 16 23.5t6 28.5v203q0 28-13.5 45t-36.5 26q-24 9-55 11.5t-66 2.5-66-2.5-55-11.5q-23-9-36.5-26t-13.5-45v-203zM128 149q0 7 2.5 12.5t7.5 10.5q4 4 10 6.5t12 2.5 12-2.5 10-6.5q5-5 7.5-10.5t2.5-12.5q0-6-2.5-12t-7.5-10q-4-4-10-7t-12-3-12 3-10 7q-5 4-7.5 10t-2.5 12zM128 245v107h107v-107h-107zM277 245v107h107v-107h-107zM320 149q0 7 2.5 12.5t7.5 10.5q4 4 10 6.5t12 2.5 12-2.5 10-6.5q5-5 7.5-10.5t2.5-12.5q0-6-2.5-12t-7.5-10q-4-4-10-7t-12-3-12 3-10 7q-5 4-7.5 10t-2.5 12z" />
<glyph unicode="&#xe69e;" d="M43 224q0-44 16.5-83t45.5-68 68-45.5 83-16.5 83 16.5 68 45.5 45.5 68 16.5 83-16.5 83-45.5 68-68 45.5-83 16.5-83-16.5-68-45.5-45.5-68-16.5-83zM85 224q0 35 13.5 66t36.5 55q24 23 55 36.5t66 13.5 66-13.5 55-36.5q23-24 36.5-55t13.5-66-13.5-66-36.5-55q-24-23-55-36.5t-66-13.5-66 13.5-55 36.5q-23 24-36.5 55t-13.5 66zM149 181q0-8 3.5-16t9.5-14 13.5-9 16.5-3 16.5 3 13.5 9 9.5 14 3.5 16q0 9-3.5 17t-9.5 13q-6 6-13.5 9.5t-16.5 3.5-16.5-3.5-13.5-9.5q-6-5-9.5-13t-3.5-17zM213 288q0-9 3.5-16.5t9.5-13.5 13.5-9.5 16.5-3.5 16.5 3.5 13.5 9.5 9.5 13.5 3.5 16.5-3.5 16.5-9.5 13.5-13.5 9.5-16.5 3.5-16.5-3.5-13.5-9.5-9.5-13.5-3.5-16.5zM277 181q0-8 3.5-16t9.5-14 13.5-9 16.5-3 16.5 3 13.5 9 9.5 14 3.5 16q0 9-3.5 17t-9.5 13q-6 6-13.5 9.5t-16.5 3.5-16.5-3.5-13.5-9.5q-6-5-9.5-13t-3.5-17z" />
<glyph unicode="&#xe69f;" d="M85 149q0-15 6-28.5t16-23.5q11-10 24.5-16t28.5-6l-32-32v-11h256v11l-32 32q15 0 28.5 6t24.5 16q10 10 16 23.5t6 28.5v203q0 28-13.5 45t-36.5 26q-24 9-55 11.5t-66 2.5-66-2.5-55-11.5q-23-9-36.5-26t-13.5-45v-203zM128 149q0 7 2.5 12.5t7.5 10.5q4 4 10 6.5t12 2.5 12-2.5 10-6.5q5-5 7.5-10.5t2.5-12.5q0-6-2.5-12t-7.5-10q-4-4-10-7t-12-3-12 3-10 7q-5 4-7.5 10t-2.5 12zM128 245v107h107v-107h-107zM277 245v107h107v-107h-107zM320 149q0 7 2.5 12.5t7.5 10.5q4 4 10 6.5t12 2.5 12-2.5 10-6.5q5-5 7.5-10.5t2.5-12.5q0-6-2.5-12t-7.5-10q-4-4-10-7t-12-3-12 3-10 7q-5 4-7.5 10t-2.5 12z" />
<glyph unicode="&#xe6a0;" d="M63 53q1-9 6.5-15t15.5-6h21q10 0 15.5 6t6.5 15l-1 22h257l-1-22q1-9 6.5-15t15.5-6h21q10 0 15.5 6t6.5 15l-1 171-44 128q-2 5-5 9t-8 6q-3 3-8 4.5t-9 1.5h-235q-5 0-10-1.5t-8-4.5q-5-2-7.5-6t-4.5-9l-44-128zM106 171q1 6 3 12t7 10q4 4 10 7t12 3q7 0 12.5-3t10.5-7q3-4 6.5-10t2.5-12q1-7-2.5-12.5t-6.5-10.5q-5-4-10.5-6.5t-12.5-2.5q-6 0-12 2.5t-10 6.5q-5 5-7 10.5t-3 12.5zM106 245l33 96h233l33-96h-299zM341 171q-0.25 1.25-0.25 2.75 0 4.5 2.75 9.25 3.5 6 6.5 10 5 4 10.5 7t12.5 3q6 0 12-3t10-7q5-4 7-10t3-12q-1-7-3-12.5t-7-10.5q-4-4-10-6.5t-12-2.5q-7 0-12.5 2.5t-10.5 6.5q-3 5-6.5 10.5-2.75 4.25-2.75 9.5 0 1.5 0.25 3z" />
<glyph unicode="&#xe6a1;" d="M64 32h81l235 237-81 81-235-237v-81zM324 371l81-81 37 41q6 6 6 14.5t-6 15.5l-49 49q-7 6-15.5 6t-14.5-6z" />
<glyph unicode="&#xe6a2;" d="M42 388l107-106-1-79h65l-1-192 78 130 87-88 28 28-336 335h1zM148 437l1-47 181-181 33 58h-87l87 170h-215z" />
<glyph unicode="&#xe6a3;" d="M43 224q0-44 16.5-83t45.5-68 68-45.5 83-16.5 83 16.5 68 45.5 45.5 68 16.5 83-16.5 83-45.5 68-68 45.5-83 16.5-83-16.5-68-45.5-45.5-68-16.5-83zM107 224q0 31 11.5 58.5t31.5 47.5 47.5 31.5 58.5 11.5q13 0 25-2t23-5q11-4 21.5-9.5t20.5-13.5l-47-46q-5 3-10 5.5t-11 3.5q-5 2-10.5 2.5t-11.5 0.5q-18 0-33.5-6.5t-26.5-18.5q-12-11-18.5-26.5t-6.5-33.5q0-9 1.5-17t4.5-16 8-14.5 11-12.5l-45-45q-10 10-18.5 22t-13.5 25q-6 14-9 28.5t-3 29.5zM316 164q5 6 10 12.5t8 14.5q4 8 5.5 16t1.5 17q0 6-0.5 11.5t-2.5 10.5q-1 6-3.5 11t-5.5 10l46 47q8-10 13.5-20.5t9.5-21.5q3-11 5-23t2-25q0-15-3-29.5t-9-28.5q-5-13-13.5-25t-18.5-22z" />
<glyph unicode="&#xe6a4;" d="M213 96q0-9 3.5-16.5t9.5-13.5 13.5-9.5 16.5-3.5 16.5 3.5 13.5 9.5 9.5 13.5 3.5 16.5-3.5 16.5-9.5 13.5-13.5 9.5-16.5 3.5-16.5-3.5-13.5-9.5-9.5-13.5-3.5-16.5zM213 224q0-9 3.5-16.5t9.5-13.5 13.5-9.5 16.5-3.5 16.5 3.5 13.5 9.5 9.5 13.5 3.5 16.5-3.5 16.5-9.5 13.5-13.5 9.5-16.5 3.5-16.5-3.5-13.5-9.5-9.5-13.5-3.5-16.5zM213 352q0-9 3.5-16.5t9.5-13.5 13.5-9.5 16.5-3.5 16.5 3.5 13.5 9.5 9.5 13.5 3.5 16.5-3.5 16.5-9.5 13.5-13.5 9.5-16.5 3.5-16.5-3.5-13.5-9.5-9.5-13.5-3.5-16.5z" />
<glyph unicode="&#xe6a5;" d="M43 11l86 85h298q9 0 16.5 3.5t14.5 9.5q5 5 8.5 13t2.5 17l1 256q-1 8-3.5 16t-9.5 14q-5 6-13.5 9t-15.5 3h-342q-9 0-16.5-3t-14.5-9q-5-6-8.5-14t-2.5-16z" />
<glyph unicode="&#xe6a6;" d="M107 224q0-27 10-51.5t27-43.5q18-19 41-31.5t50-16.5v-70h42v70q27 4 50 16.5t41 31.5q17 19 27 43.5t10 51.5h-36q0-24-9-44t-25-34q-16-15-36.5-23t-42.5-8-42.5 8-36.5 23q-16 14-25 34t-9 44h-36zM192 224q0-14 5-25.5t13-20.5q9-8 20.5-13t25.5-5 25.5 5 20.5 13q8 9 13 20.5t5 25.5v128q0 14-5 25.5t-13 20.5q-9 8-20.5 13t-25.5 5-25.5-5-20.5-13q-8-9-13-20.5t-5-25.5v-128z" />
<glyph unicode="&#xe6a7;" d="M107 224q0-27 10-51.5t27-43.5q18-19 41-31.5t50-16.5v-70h42v70q27 4 50 16.5t41 31.5q17 19 27 43.5t10 51.5h-36q0-24-9-44t-25-34q-16-15-36.5-23t-42.5-8-42.5 8-36.5 23q-16 14-25 34t-9 44h-36zM192 224q0-14 5-25.5t13-20.5q9-8 20.5-13t25.5-5 25.5 5 20.5 13q8 9 13 20.5t5 25.5v128q0 14-5 25.5t-13 20.5q-9 8-20.5 13t-25.5 5-25.5-5-20.5-13q-8-9-13-20.5t-5-25.5v-128zM230 222v132q0 6 2 10.5t6 8.5q3 3 7.5 5t10.5 2 10.5-2 7.5-5q4-4 6-8.5t2-10.5v-132q0-6-2-10.5t-6-8.5q-3-3-7.5-5t-10.5-2-10.5 2-7.5 5q-4 4-6 8.5t-2 10.5z" />
<glyph unicode="&#xe6a8;" d="M85 160q0-35 13.5-66t36.5-55q24-23 55-36.5t66-13.5 66 13.5 55 36.5q23 24 36.5 55t13.5 66v85h-342v-85zM85 288h150v169q-32-4-59-19t-47-37-32-51-12-62zM277 288h150q0 33-12 62t-32 51-47 37-59 19v-169z" />
<glyph unicode="&#xe6a9;" d="M43 224q0-44 16.5-83t45.5-68 68-45.5 83-16.5 83 16.5 68 45.5 45.5 68 16.5 83-16.5 83-45.5 68-68 45.5-83 16.5-83-16.5-68-45.5-45.5-68-16.5-83zM137 181h238q-6-18-17.5-33.5t-27.5-27.5q-15-11-34-17.5t-40-6.5-40 6.5-34 17.5q-16 12-27.5 27.5t-17.5 33.5zM149 277q0 7 3 12.5t7 10.5q4 4 10 6.5t12 2.5q7 0 12.5-2.5t10.5-6.5q4-5 6.5-10.5t2.5-12.5q0-6-2.5-12t-6.5-10q-5-4-10.5-7t-12.5-3q-6 0-12 3t-10 7-7 10-3 12zM299 277q0 7 2.5 12.5t6.5 10.5q5 4 10.5 6.5t12.5 2.5q6 0 12-2.5t10-6.5q4-5 7-10.5t3-12.5q0-6-3-12t-7-10-10-7-12-3q-7 0-12.5 3t-10.5 7q-4 4-6.5 10t-2.5 12z" />
<glyph unicode="&#xe6aa;" d="M0 224l115-173q3-4 7-7.5t9-5.5q5-3 10-4.5t10-1.5h318q9 0 17 3.5t13 9.5q6 5 9.5 13t3.5 17v298q0 9-3.5 17t-9.5 13q-5 6-13 9.5t-17 3.5h-320q-5 0-10-1.5t-9-4.5q-4-2-8-5.5t-7-7.5zM160 224q0 6 2.5 12t7.5 10q4 5 10 7.5t12 2.5 12-2.5 10-7.5q5-4 7.5-10t2.5-12-2.5-12-7.5-10q-4-5-10-7.5t-12-2.5-12 2.5-10 7.5q-5 4-7.5 10t-2.5 12zM267 224q0 6 2.5 12t6.5 10q5 5 10.5 7.5t12.5 2.5q6 0 12-2.5t10-7.5q4-4 7-10t3-12-3-12-7-10q-4-5-10-7.5t-12-2.5q-7 0-12.5 2.5t-10.5 7.5q-4 4-6.5 10t-2.5 12zM373 224q0 6 3 12t7 10q4 5 10 7.5t12 2.5q7 0 12.5-2.5t10.5-7.5q4-4 6.5-10t2.5-12-2.5-12-6.5-10q-5-5-10.5-7.5t-12.5-2.5q-6 0-12 2.5t-10 7.5q-4 4-7 10t-3 12z" />
<glyph unicode="&#xe6ab;" d="M85 224q0-9 3.5-16.5t9.5-13.5 13.5-9.5 16.5-3.5 16.5 3.5 13.5 9.5 9.5 13.5 3.5 16.5-3.5 16.5-9.5 13.5-13.5 9.5-16.5 3.5-16.5-3.5-13.5-9.5-9.5-13.5-3.5-16.5zM213 224q0-9 3.5-16.5t9.5-13.5 13.5-9.5 16.5-3.5 16.5 3.5 13.5 9.5 9.5 13.5 3.5 16.5-3.5 16.5-9.5 13.5-13.5 9.5-16.5 3.5-16.5-3.5-13.5-9.5-9.5-13.5-3.5-16.5zM341 224q0-9 3.5-16.5t9.5-13.5 13.5-9.5 16.5-3.5 16.5 3.5 13.5 9.5 9.5 13.5 3.5 16.5-3.5 16.5-9.5 13.5-13.5 9.5-16.5 3.5-16.5-3.5-13.5-9.5-9.5-13.5-3.5-16.5z" />
<glyph unicode="&#xe6ac;" d="M64 367l128-128v-15q0-14 5-25.5t13-20.5q9-8 20.5-13t25.5-5q3 0 6.5 0.5t8.5 1.5l36-36q-5-3-11-4.5t-13-3.5l-12-2t-13-1q-22 0-42.5 8t-36.5 23q-15 14-24.5 34t-9.5 44h-38q0-27 10-51.5t27-43.5q18-19 41-31.5t50-16.5v-70h42v70q8 1 15 3l14 4q6 3 12.5 6t12.5 6l89-89 28 27-356 357zM192 348l128-128v132q0 14-5 25.5t-13 20.5q-9 8-20.5 13t-25.5 5-25.5-5-20.5-13q-8-9-13-20.5t-5-25.5v-4zM361 181l25-25q5 7 8.5 15t6.5 16q2 9 3 18t1 19h-36q0-6-0.5-11.5t-2.5-10.5q-1-6-2.5-11t-2.5-10z" />
<glyph unicode="&#xe6ad;" d="M0 352l256-341 256 341q-26 20-56 36t-62 27q-33 11-67.5 16.5t-70.5 5.5-70.5-5.5-67.5-16.5q-32-11-62-27t-56-36zM62 341q21 13 44.5 23t47.5 17q25 7 50.5 10.5t51.5 3.5 51.5-3.5 50.5-10.5q24-7 47.5-17t44.5-23l-43-57q-16 9-34 16.5t-37 13.5q-19 5-39 7.5t-41 2.5-41-2.5-39-7.5q-19-6-37-13.5t-34-16.5z" />
<glyph unicode="&#xe6ae;" d="M43 11l86 85h298q9 0 16.5 3.5t14.5 9.5q5 5 8.5 13t2.5 17l1 256q-1 8-3.5 16t-9.5 14q-5 6-13.5 9t-15.5 3h-342q-9 0-16.5-3t-14.5-9q-5-6-8.5-14t-2.5-16zM107 181l75 96 53-64 75 96 95-128h-298z" />
<glyph unicode="&#xe6af;" d="M64 75h363v21l-43 43v117q0 25-8 47t-22 39q-14 18-33.5 30.5t-43.5 17.5v15q0 7-2.5 12.5t-6.5 10.5q-5 4-10.5 6.5t-12.5 2.5q-6 0-12-2.5t-10-6.5q-4-5-7-10.5t-3-12.5v-15q-23-5-42.5-17.5t-33.5-30.5q-14-17-22-39t-8-47v-117l-43-43v-21zM203 53q0-8 3-16t9-14 14-9 16-3q9 0 17 3t13 9q6 6 9.5 14t3.5 16h-85z" />
<glyph unicode="&#xe6b0;" d="M43 53q1-8 3.5-16t9.5-14q5-6 13.5-9t15.5-3h343q7 0 15.5 3t13.5 9q7 6 9.5 14t3.5 16l-1 342q1 8-2.5 16t-8.5 14q-7 6-14.5 9t-16.5 3h-341q-9 0-16.5-3t-14.5-9q-5-6-8.5-14t-2.5-16zM85 53l1 342h341l1-342h-343zM128 352l1-256h255l1 256h-107q-9 0-16.5-3.5t-14.5-9.5q-5-5-8.5-13t-2.5-17l-1-49q-4-2-8.5-6t-6.5-9q-4-4-5-9.5t-2-11.5q1-9 4-16.5t10-13.5q5-6 13-9.5t16-3.5q10 0 17 3.5t14 9.5q5 6 9 13.5t3 16.5q1 6-1 11.5t-4 9.5q-4 5-7.5 9t-9.5 6l1 49h63l1-170h-171l1 170h41l1 43h-86z" />
<glyph unicode="&#xe6b1;" d="M21 203h45q4-34 18.5-63.5t37.5-51.5q22-22 51-36.5t62-17.5v-45h42v45q34 4 63.5 18.5t51.5 37.5q22 22 36.5 51t17.5 62h45v42h-45q-4 34-18.5 63.5t-37.5 51.5q-22 22-51 36.5t-62 17.5v45h-42v-45q-34-3-63.5-17.5t-51.5-36.5-36.5-51.5-17.5-63.5h-45v-42zM107 224q0 31 11.5 58.5t31.5 47.5 47.5 31.5 58.5 11.5 58.5-11.5 47.5-31.5 31.5-47.5 11.5-58.5-11.5-58.5-31.5-47.5-47.5-31.5-58.5-11.5-58.5 11.5-47.5 31.5-31.5 47.5-11.5 58.5z" />
<glyph unicode="&#xe6b2;" d="M85 53q0-8 3.5-16t9.5-14 13.5-9 16.5-3h256q9 0 16.5 3t13.5 9 9.5 14 3.5 16v214q0 8-3.5 16t-9.5 14-13.5 9-16.5 3h-21v43q0 22-8.5 41.5t-22.5 34.5q-15 14-34.5 22.5t-41.5 8.5-41.5-8.5-34.5-22.5q-14-15-22.5-34.5t-8.5-41.5v-43h-21q-9 0-16.5-3t-13.5-9-9.5-14-3.5-16v-214zM190 309v43q0 14 5 26t14 21 21 14 26 5 26-5 21-14 14-21 5-26v-43h-132zM213 160q0 9 3.5 16.5t9.5 13.5 13.5 9.5 16.5 3.5 16.5-3.5 13.5-9.5 9.5-13.5 3.5-16.5-3.5-16.5-9.5-13.5-13.5-9.5-16.5-3.5-16.5 3.5-13.5 9.5-9.5 13.5-3.5 16.5z" />
<glyph unicode="&#xe6b3;" d="M85 53q0-8 3.5-16t9.5-14 13.5-9 16.5-3h256q9 0 16.5 3t13.5 9 9.5 14 3.5 16v214q0 8-3.5 16t-9.5 14-13.5 9-16.5 3h-21v43q0 22-8.5 41.5t-22.5 34.5q-15 14-34.5 22.5t-41.5 8.5-41.5-8.5-34.5-22.5q-14-15-22.5-34.5t-8.5-41.5h41q0 14 5 26t14 21 21 14 26 5 26-5 21-14 14-21 5-26v-43h-194q-9 0-16.5-3t-13.5-9-9.5-14-3.5-16v-214zM128 53v214h256v-214h-256zM213 160q0-9 3.5-16.5t9.5-13.5 13.5-9.5 16.5-3.5 16.5 3.5 13.5 9.5 9.5 13.5 3.5 16.5-3.5 16.5-9.5 13.5-13.5 9.5-16.5 3.5-16.5-3.5-13.5-9.5-9.5-13.5-3.5-16.5z" />
<glyph unicode="&#xe6b4;" d="M85 53q0-8 3.5-16t9.5-14 13.5-9 16.5-3h256q9 0 16.5 3t13.5 9 9.5 14 3.5 16v214q0 8-3.5 16t-9.5 14-13.5 9-16.5 3h-21v43q0 22-8.5 41.5t-22.5 34.5q-15 14-34.5 22.5t-41.5 8.5-41.5-8.5-34.5-22.5q-14-15-22.5-34.5t-8.5-41.5v-43h-21q-9 0-16.5-3t-13.5-9-9.5-14-3.5-16v-214zM128 53v214h256v-214h-256zM190 352q0 14 5 26t14 21 21 14 26 5 26-5 21-14 14-21 5-26v-43h-130v43h-2zM213 160q0-9 3.5-16.5t9.5-13.5 13.5-9.5 16.5-3.5 16.5 3.5 13.5 9.5 9.5 13.5 3.5 16.5-3.5 16.5-9.5 13.5-13.5 9.5-16.5 3.5-16.5-3.5-13.5-9.5-9.5-13.5-3.5-16.5z" />
<glyph unicode="&#xe6b5;" d="M85 224q0-35 13.5-66t36.5-55q24-23 55-36.5t66-13.5v-64l85 86-85 85v-64q-26 0-49.5 10t-40.5 28q-18 17-28 40.5t-10 49.5q0 8 1 16t3 15q2 8 5 15l6 14-32 32q-6-11-10.5-21.5t-7.5-22.5q-4-11-6-23t-2-25zM171 373l85-85v64q26 0 49.5-10t40.5-28q18-17 28-40.5t10-49.5q0-8-1-16t-3-15q-2-8-5-15l-6-14 32-32q6 11 10.5 21.5t7.5 22.5q4 11 6 23t2 25q0 35-13.5 66t-36.5 55q-24 23-55 36.5t-66 13.5v64z" />
<glyph unicode="&#xe6b6;" d="M43 96q1-9 3.5-16.5t9.5-13.5q5-6 13.5-9.5t15.5-3.5h343q7 0 15.5 3.5t13.5 9.5q7 6 9.5 13.5t3.5 16.5l-1 256q1 9-2.5 16.5t-8.5 13.5q-7 6-14.5 9.5t-16.5 3.5h-341q-9 0-16.5-3.5t-14.5-9.5q-5-6-8.5-13.5t-2.5-16.5zM85 352l172-107 170 107 1-43-172-106-170 106z" />
<glyph unicode="&#xe6b7;" d="M63 365l1-322q-1-5 2.5-8t7.5-3h5l112 45 129-45 118 41q5 1 7 4t3 6l-1 322q1 5-2.5 8t-7.5 3h-5l-112-45-129 45-118-41q-5-1-7-3t-3-7zM191 373l129-44-1-254-127 44z" />
<glyph unicode="&#xe6b8;" d="M0 53l43-42 42 42 43-42 43 42 42-42 43 42 43-42 42 42 43-42 43 42 42-42 43 42-43 43 43 43-43 42 43 43-43 43 43 42-43 43 43 43-43 42-42-42-43 42-43-42-42 42-43-42-43 42-42-42-43 42-43-42-42 42-43-42 43-43-43-43 43-42-43-43 43-43-43-42 43-43zM85 309v43l171-107 171 107v-43l-171-106z" />
<glyph unicode="&#xe6b9;" d="M64 160h43v-43q0-8 3-16t9-14 14-9 16-3h43v-43h43v43h42v-43h43v43h43q8 0 16 3t14 9 9 14 3 16v43h43v43h-43v42h43v43h-43v43q0 8-3 16t-9 14-14 9-16 3h-43v43h-43v-43h-42v43h-43v-43h-43q-8 0-16-3t-14-9-9-14-3-16v-43h-43v-43h43v-42h-43v-43zM149 117v214h214v-214h-214zM192 160h128v128h-128v-128zM235 203v42h42v-42h-42z" />
<glyph unicode="&#xe6ba;" d="M64 96h384v43h-384v-43zM64 203h384v42h-384v-42zM64 309h384v43h-384v-43z" />
<glyph unicode="&#xe6bb;" d="M43 97q0-10 3-17t9-14q6-5 14-9t16-3l342-1q8 1 16 4t14 10q6 5 9 13t3 16v300l-85-1 43-85-64-1-43 87-43-1 43-85-64-1-43 87-42-1 42-85-64-1-42 87-22-1q-8 1-16-3t-14-9q-6-7-9-14t-3-17v-255z" />
<glyph unicode="&#xe6bc;" d="M63 373l1-298q-1-9 3-17t9-13q6-6 13.5-9.5t17.5-3.5h297q10 0 17.5 3.5t13.5 9.5q5 5 9 13t3 17l1 298q-1 9-4 17t-10 13q-4 6-12.5 9.5t-16.5 3.5h-299q-8 0-16.5-3.5t-12.5-9.5q-7-5-10-13t-4-17zM127 224q1 26 10.5 49.5t28.5 40.5q16 18 40 28t49 10q27 0 50-10t41-28q17-17 27.5-40.5t9.5-49.5q1-26-9.5-49.5t-27.5-40.5q-18-18-41-28t-50-10q-25 0-49 10t-40 28q-19 17-28.5 40.5t-10.5 49.5zM171 224q-1 18 6 33.5t18 26.5q12 12 27 18.5t34 6.5q17 0 33-6.5t26-18.5q13-11 19-26.5t7-33.5q-1-18-7-33.5t-19-26.5q-10-12-26-18.5t-33-6.5q-19 0-34 6.5t-27 18.5q-11 11-18 26.5t-6 33.5z" />
<glyph unicode="&#xe6bd;" d="M43 11h427l-1 426-425-426h-1zM356 262l72 73-1-282h-70z" />
<glyph unicode="&#xe6be;" d="M43 11l86 85h298q9 0 16.5 3.5t14.5 9.5q5 5 8.5 13t2.5 17l1 256q-1 8-3.5 16t-9.5 14q-5 6-13.5 9t-15.5 3h-342q-9 0-16.5-3t-14.5-9q-5-6-8.5-14t-2.5-16zM128 224h257l-1-43h-255zM128 245l1 43h255l1-43h-257zM128 352h257l-1-43h-255z" />
<glyph unicode="&#xe6bf;" d="M43 160q1-9 3.5-16.5t9.5-13.5q5-6 13.5-9.5t15.5-3.5h343q7 0 15.5 3.5t13.5 9.5q7 6 9.5 13.5t3.5 16.5l-1 213q0.25 2 0.25 4 0 6.75-2.75 13-3.5 8-8.5 13-7 6-14.5 9.5t-16.5 3.5h-341q-9 0-16.5-3.5t-14.5-9.5q-5-5-8.5-13-2.75-6.25-2.75-13 0-2 0.25-4zM107 245l1 43h41l1-43h-43zM107 352h43l-1-43h-41zM171 75l86-86h-1l86 86h-171zM171 160l1 43h169l1-43h-171zM171 288h43l-1-43h-41zM171 309l1 43h41l1-43h-43zM235 288h43l-1-43h-41zM235 309l1 43h41l1-43h-43zM299 288h43l-1-43h-41zM299 309l1 43h41l1-43h-43zM363 288h43l-1-43h-41zM363 309l1 43h41l1-43h-43z" />
<glyph unicode="&#xe6c0;" d="M64 224h192v-192h21l171 384-384-171v-21z" />
<glyph unicode="&#xe6c1;" d="M64 117h43v43h-43v-43zM64 203h43v42h-43v-42zM64 288h43v43h-43v-43zM149 117h299v43h-299v-43zM149 203h299v42h-299v-42zM149 288h299v43h-299v-43z" />
<glyph unicode="&#xe6c2;" d="M21 203h303l-77-77 30-30 128 128-128 128-30-30 77-77h-303v-42zM427 96h42v256h-42v-256z" />
<glyph unicode="&#xe6c3;" d="M43 245q0-44 16.5-82.5t45.5-67.5 68-46 83-17 83 17 68 46 45.5 67.5 16.5 82.5-16.5 83-45.5 68-68 46-83 17-83-17-68-46-45.5-68-16.5-83zM85 245q0 36 13.5 67t36.5 54q24 23 55 36.5t66 13.5 66-13.5 55-36.5q23-23 36.5-54t13.5-67q0-35-13.5-66t-36.5-54q-24-23-55-36.5t-66-13.5-66 13.5-55 36.5q-23 23-36.5 54t-13.5 66zM134 203q8-19 20-34.5t28-26.5q15-12 34-18.5t40-6.5 40 6.5 34 18.5q16 11 28 26.5t20 34.5h-244zM149 299q0-7 3-12.5t7-10.5q4-4 10-6.5t12-2.5q7 0 12.5 2.5t10.5 6.5q4 5 6.5 10.5t2.5 12.5q0 6-2.5 12t-6.5 10q-5 4-10.5 7t-12.5 3q-6 0-12-3t-10-7-7-10-3-12zM299 299q0-7 2.5-12.5t6.5-10.5q5-4 10.5-6.5t12.5-2.5q6 0 12 2.5t10 6.5q4 5 7 10.5t3 12.5q0 6-3 12t-7 10-10 7-12 3q-7 0-12.5-3t-10.5-7q-4-4-6.5-10t-2.5-12z" />
<glyph unicode="&#xe6c4;" d="M107 224q0-27 10-51.5t27-43.5q18-19 41-31.5t50-16.5v-70h42v70q27 4 50 16.5t41 31.5q17 19 27 43.5t10 51.5h-36q0-24-9-44t-25-34q-16-15-36.5-23t-42.5-8-42.5 8-36.5 23q-16 14-25 34t-9 44h-36zM192 224q0-14 5-25.5t13-20.5q9-8 20.5-13t25.5-5 25.5 5 20.5 13q8 9 13 20.5t5 25.5v128q0 14-5 25.5t-13 20.5q-9 8-20.5 13t-25.5 5-25.5-5-20.5-13q-8-9-13-20.5t-5-25.5v-128z" />
<glyph unicode="&#xe6c5;" d="M64 117q0-8 3.5-16t9.5-14q5-6 13-9t17-3h234q6 0 11 1t10 3q4 2 7.5 5.5t5.5 7.5l94 132-94 132q-2 4-5.5 7.5t-7.5 5.5q-5 2-10 3t-11 1h-234q-9 0-17-3t-13-9q-6-6-9.5-14t-3.5-16v-214z" />
<glyph unicode="&#xe6c6;" d="M64 117q0-8 3.5-16t9.5-14q5-6 13-9t17-3h234q6 0 11 1t10 3q4 2 7.5 5.5t5.5 7.5l94 132-94 132q-2 4-5.5 7.5t-7.5 5.5q-5 2-10 3t-11 1h-234q-9 0-17-3t-13-9q-6-6-9.5-14t-3.5-16v-214zM107 117v214h234l75-107-75-107h-234z" />
<glyph unicode="&#xe6c7;" d="M64 224l128-128 30 30-77 77h303v42h-303l77 77-30 30z" />
<glyph unicode="&#xe6c8;" d="M21 96h470l-192 256-81-107 61-81-34-25q-27 35-61.5 81.5l-34.5 46.5z" />
<glyph unicode="&#xe6c9;" d="M43 224q0-44 16.5-83t45.5-68 68-45.5 83-16.5 83 16.5 68 45.5 45.5 68 16.5 83-16.5 83-45.5 68-68 45.5-83 16.5-83-16.5-68-45.5-45.5-68-16.5-83zM85 224q0 6 0.5 11.5t1.5 10.5q1 6 2 11t3 10h72q-1-6-1-11t-1-11v-21t0.5-11 0.5-10q1-6 1-11v-11h-72q-2 5-3 10t-2 11q-1 5-1.5 10.5t-0.5 11.5zM109 139h62q2-11 5-20.5t7-19.5q4-9 8.5-18.5t9.5-18.5q-15 5-28.5 13t-25.5 17q-11 10-21 21.5t-17 25.5zM109 309q8 14 18 25.5t21 21.5q12 9 25 17t28 13q-5-9-9.5-18.5t-8.5-18.5q-4-10-7-19.5t-5-20.5h-62zM203 213v22t1 10q1 6 1.5 11t1.5 11h100q1-6 2-11t1-11q1-5 1-10v-11t-0.5-11-1.5-10q-1-6-2-11t-2-11h-98q-1 6-1.5 11t-1.5 11q-1 5-1 10zM215 139h82q-4-12-8-23t-10-22q-5-10-11-20.5t-12-20.5l-12 20t-11 21q-6 10-10 21.5t-8 23.5zM215 309q4 12 8 23t10 22q5 10 11 20.5t12 20.5l12-20t11-21q6-10 10-21.5t8-23.5h-82zM311 62q5 9 9.5 18t8.5 19q4 9 7 19t5 21h62q-7-14-17-25.5t-21-21.5q-12-9-25.5-17t-28.5-13zM311 386q15-5 28.5-13t25.5-17q11-10 21-21.5t17-25.5h-62q-2 11-5 20.5t-7 19.5q-4 9-8.5 18.5t-9.5 18.5zM350 181q1 6 1.5 11t0.5 11v21t-0.5 11-0.5 10q0 6-0.5 11t-0.5 11h72q2-5 3-10t2-11q1-5 1.5-10.5t0.5-11.5-0.5-11.5-1.5-10.5q-1-6-2-11t-3-10h-72z" />
<glyph unicode="&#xe6ca;" d="M0 96l1-43h511l1 43h-86q9 0 16.5 3.5t14.5 9.5q5 5 8.5 13 2.75 6.25 2.75 13 0 2-0.25 4l1 213q-1 9-3.5 16.5t-9.5 13.5q-5 6-13.5 9.5t-15.5 3.5h-343q-7 0-15.5-3.5t-13.5-9.5q-7-6-9.5-13.5t-3.5-16.5l1-213q-0.25-2-0.25-4 0-6.75 2.75-13 3.5-8 8.5-13 7-6 14.5-9.5t16.5-3.5h-86zM85 139l1 213h341l1-213h-343z" />
<glyph unicode="&#xe6cb;" d="M21 203h45q4-34 18.5-63.5t37.5-51.5q22-22 51-36.5t62-17.5v-45h42v45q15 2 28.5 5.5t25.5 8.5q13 6 24.5 13t22.5 16l42-43 28 28-356 354-28-28 43-42q-8-11-15-22.5t-12-24.5q-5-12-8.5-25.5t-5.5-28.5h-45v-42zM107 224q0 13 2 25t6 24 10 22.5 14 20.5l209-209q-10-8-20.5-14t-22.5-10-24-6-25-2q-31 0-58.5 11.5t-47.5 31.5-31.5 47.5-11.5 58.5zM166 395l32-32q8 2 15 4t14 3q7 2 14.5 2.5t14.5 0.5q31 0 58.5-11.5t47.5-31.5 31.5-47.5 11.5-58.5q0-7-0.5-14.5t-2.5-14.5q-1-7-3-14t-4-15l32-32q4 8 7 16.5t6 16.5q2 8 4 17t4 19h43v42h-45q-4 34-18.5 63.5t-37.5 51.5q-22 22-51 36.5t-62 17.5v45h-42v-45q-9-1-18-2.5t-17-4.5q-9-2-17.5-5t-16.5-7z" />
<glyph unicode="&#xe6cc;" d="M64 32h384v213h-128v128l-64 64-64-64v-42h-128v-299zM107 75v42h42v-42h-42zM107 160v43h42v-43h-42zM107 245v43h42v-43h-42zM235 75v42h42v-42h-42zM235 160v43h42v-43h-42zM235 245v43h42v-43h-42zM235 331v42h42v-42h-42zM363 75v42h42v-42h-42zM363 160v43h42v-43h-42z" />
<glyph unicode="&#xe6cd;" d="M128 96h256v43h-256v-43zM128 233l30-30 98 98 98-98 30 30-128 128z" />
<glyph unicode="&#xe6ce;" d="M85 224q0-9 3.5-16.5t9.5-13.5 13.5-9.5 16.5-3.5 16.5 3.5 13.5 9.5 9.5 13.5 3.5 16.5-3.5 16.5-9.5 13.5-13.5 9.5-16.5 3.5-16.5-3.5-13.5-9.5-9.5-13.5-3.5-16.5zM213 224q0-9 3.5-16.5t9.5-13.5 13.5-9.5 16.5-3.5 16.5 3.5 13.5 9.5 9.5 13.5 3.5 16.5-3.5 16.5-9.5 13.5-13.5 9.5-16.5 3.5-16.5-3.5-13.5-9.5-9.5-13.5-3.5-16.5zM341 224q0-9 3.5-16.5t9.5-13.5 13.5-9.5 16.5-3.5 16.5 3.5 13.5 9.5 9.5 13.5 3.5 16.5-3.5 16.5-9.5 13.5-13.5 9.5-16.5 3.5-16.5-3.5-13.5-9.5-9.5-13.5-3.5-16.5z" />
<glyph unicode="&#xe6cf;" d="M128 139h111v-128h34v128h111v42l-43 43v171h22v42h-214v-42h22v-171l-43-43v-42z" />
<glyph unicode="&#xe6d0;" d="M128 285l30 29 98-98 98 98 30-29-128-129z" />
<glyph unicode="&#xe6d1;" d="M43 225l128-129 30 31-77 76 324 1v127h-43v-85l-281-1 77 78-30 29z" />
<glyph unicode="&#xe6d2;" d="M171 235l129-128 29 30-98 98 98 98-29 30z" />
<glyph unicode="&#xe6d3;" d="M128 180l30-29 98 98 98-98 30 29-128 129z" />
<glyph unicode="&#xe6d4;" d="M63 395l1-299q-0.25-1.75-0.25-3.5 0-7 3.25-13 4-7.5 9-13.5 6-6 13.5-9.5t17.5-3.5h84l65-64 63 64h86q8 0 16.5 3.5t12.5 9.5q7 6 10 13.5t4 16.5l-1 299q0.25 1.5 0.25 3.25 0 6.5-3.25 12.75-4 8-9 14-6 6-13.5 9t-17.5 3h-298q-8 0-16.5-3t-12.5-9q-7-6-10-14t-4-16zM171 309v4.5q0 15.5 6 29 7 15.5 18 27.5 12 11 27 18t34 7q17 0 33-7t26-18q13-12 19-27.5t7-33.5q-1-7-2-13.5t-4-13.5q-2-6-6-11.5t-7-10.5h-1l-18-19q-7-6-11.5-11.5t-8.5-11.5q-2-7-4.5-16-1.75-6.5-1.75-14.5 0-3.25 0.25-6.5h-43l1 11q-0.25 3-0.25 6 0 5.75 1.25 11l4 16q4 8 8.5 14.5t11.5 12.5l25 27q4 3 6 6t4 7q1 4 2.5 8.5t0.5 8.5q0.25 1.75 0.25 3.5 0 7-3.25 13.5-4 8-9 13-7 6-14 9.5t-17 3.5q-8 0-16-3.5t-13-9.5q-7-5-10-13t-4-17h-41zM234 96l1 43h41l1-43h-43z" />
<glyph unicode="&#xe6d5;" d="M43 117q1-8 3.5-16t9.5-14q5-6 13.5-9t15.5-3h343q7 0 15.5 3t13.5 9q7 6 9.5 14t3.5 16l-1 214q0.25 1.75 0.25 3.5 0 6.25-2.75 12.5-3.5 8-8.5 14-7 6-14.5 9t-16.5 3h-341q-9 0-16.5-3t-14.5-9q-5-6-8.5-14-2.75-6.25-2.75-12.5 0-1.75 0.25-3.5zM107 203l1 42h41l1-42h-43zM107 309h43l-1-42h-41zM171 117l1 43h169l1-43h-171zM171 245h43l-1-42h-41zM171 267l1 42h41l1-42h-43zM235 245h43l-1-42h-41zM235 267l1 42h41l1-42h-43zM299 245h43l-1-42h-41zM299 267l1 42h41l1-42h-43zM363 245h43l-1-42h-41zM363 267l1 42h41l1-42h-43z" />
<glyph unicode="&#xe6d6;" d="M43 224q1-26 10.5-49.5t27.5-40.5q17-18 40.5-28t49.5-10h65l-1 41h-63q-20 0-35.5 6.5t-27.5 18.5q-11 12-18.5 28-6.5 14-6.5 29.75v8.5q0 15.75 6.5 29.75 7.5 16 18.5 28 12 12 27.5 18.5t35.5 6.5h63l1 41h-65q-26 0-49.5-10t-40.5-28q-18-17-27.5-40.5t-10.5-49.5zM171 203h171l-1 42h-169zM277 137l1-41h63q28 0 50.5 10t41.5 28q16 17 26.5 40.5 9.5 21.5 9.5 45v9q0 23.5-9.5 45-10.5 23.5-26.5 40.5-19 18-41.5 28t-50.5 10h-63l-1-41h65q18 0 34.5-6.5t26.5-18.5q13-12 19.5-28t7.5-34q-1-18-7.5-34t-19.5-28q-10-12-26.5-18.5t-34.5-6.5h-65z" />
<glyph unicode="&#xe6d7;" d="M63 373l1-298q-0.25-1.75-0.25-3.5 0-7 3.25-13.5 4-8 9-13 6-6 13.5-9.5t17.5-3.5h297q10 0 17.5 3.5t13.5 9.5q5 5 9 13 3.25 6.5 3.25 13.5 0 1.75-0.25 3.5l1 149h-44l1-149h-299l1 298h148l1 43h-150q-8 0-16.5-3.5t-12.5-9.5q-7-5-10-13t-4-17zM166 164l29-30 210 209-1-76h44l-1 149h-149l1-43h75z" />
<glyph unicode="&#xe6d8;" d="M183 132l98 96-98 98 29 30 129-128-129-128z" />
<glyph unicode="&#xe6d9;" d="M43 75q0-9 3-17t9-13q6-6 14-9.5t16-3.5h342q8 0 16 3.5t14 9.5q6 5 9 13t3 17v341l-36-36-34 36-36-36-37 36-36-36-34 36-36-36-34 36-37-36-36 36-34-36-36 36v-341zM85 75v149h171v-149h-171zM85 245v64h342v-64h-342zM277 75v21h150v-21h-150zM277 117v22h150v-22h-150zM277 160v21h150v-21h-150zM277 203v21h150v-21h-150z" />
<glyph unicode="&#xe6da;" d="M43 96q1-9 3.5-16.5t9.5-13.5q5-6 13.5-9.5t15.5-3.5h343q7 0 15.5 3.5t13.5 9.5q7 6 9.5 13.5t3.5 16.5l-1 256q0.25 2 0.25 4 0 6.75-2.75 12.5-3.5 7.5-8.5 13.5-7 6-14.5 9.5t-16.5 3.5h-341q-9 0-16.5-3.5t-14.5-9.5q-5-6-8.5-13.5-2.75-5.75-2.75-12.5 0-2 0.25-4zM128 139l1 170h170l1-68 84 68 1-170-86 68 1-68h-172z" />
<glyph unicode="&#xe6db;" d="M43 224q0-44 16.5-83t45.5-68 68-45.5 83-16.5 83 16.5 68 45.5 45.5 68 16.5 83-16.5 83-45.5 68-68 45.5-83 16.5-83-16.5-68-45.5-45.5-68-16.5-83zM235 117v128h42v-128h-42zM235 288v43h42v-43h-42z" />
<glyph unicode="&#xe6dc;" d="M107 331h64v-150h42v150h64l-85 85zM235 117l85-85 85 85h-64v150h-42v-150h-64z" />
<glyph unicode="&#xe6dd;" d="M64 117q0-13 5-25t13-20q9-9 20.5-14t25.5-5h64v171h-85v43q0 31 11.5 58t31.5 48q20 20 47.5 31.5t58.5 11.5 58.5-11.5 47.5-31.5q20-21 31.5-48t11.5-58v-43h-85v-171h64q14 0 25.5 5t20.5 14q8 8 13 20t5 25v150q0 40-15 75t-41 61-61 41-75 15-75-15-61-41-41-61-15-75v-150z" />
<glyph unicode="&#xe6de;" d="M90 70q1-18 9-35.5t26-30.5q16-13 43-21.5t62-8.5q45 0 76.5 11t53.5 29q20 18 31 40.5 10 20.5 10.25 41.75 0 2-0.25 3.75 0.25 3 0.25 6 0 13.25-3.75 24-4.5 13-10.5 24-9 11-18 21t-21 19l-23 17q-4 3-6.5 5.5t-5.5 6.5l-4 8t-1 10q-1 6 1.5 11l4.5 9q4 5 7.5 8.5t8.5 5.5q9 8 19.5 17t17.5 19q8 11 12.5 24.5t5.5 31.5q-1 17-5 30t-12 24q-5 10-13 17t-13 12h36l26 30h-133q-34 0-61-10.5t-44-27.5q-18-17-26.5-39.5t-9.5-46.5q1-18 7.5-36.5t21.5-32.5q12-15 32.5-24t45.5-9h18q-3-5-6-12.5t-4-15.5q1-8 2-14t5-10q2-5 6-9.5t7-9.5q-11 0-26.5-2t-31.5-6q-18-4-35-10t-33-16q-14-8-24-18.5t-14-20.5q-7-11-8.5-21t-2.5-19zM147 83q1 18 7.5 30t16.5 20q8 7 18 11.5t14 6.5q21 7 43 9t28 2h14q20-13 33.5-23.5t22.5-19.5q8-10 13-19.5 4.25-8 4.25-18.25 0-2-0.25-4.25v-3.25q0-13.25-7-25.25-8-13.5-20-23.5-14-9-31.5-15t-40.5-6q-25 0-47 6t-36 16q-16 11-23.5 25.5t-8.5 31.5zM187 388q-0.25 3-0.25 5.75 0 14.25 4.25 25.25 5 13 12 21 9 8 19 12.5t22 4.5q20 0 36.5-12.5t26.5-30.5q11-18 16.5-38.5t6.5-36.5q-1-21-8-33.5t-18-20.5q-9-7-20-9.5t-16-2.5q-21 0-36 11t-26 28q-9 17-14.5 37.5-4.75 17.25-4.75 33 0 2.75 0.25 5.5z" />
<glyph unicode="&#xe6df;" d="M64 117q0-13 5-25t13-20q9-9 20.5-14t25.5-5h64v171h-85v43q0 31 11.5 58t31.5 48q20 20 47.5 31.5t58.5 11.5 58.5-11.5 47.5-31.5q20-21 31.5-48t11.5-58v-43h-85v-171h85v-21h-149v-43h128q14 0 25.5 5t20.5 14q8 8 13 20t5 25v214q0 40-15 75t-41 61-61 41-75 15-75-15-61-41-41-61-15-75v-150z" />
<glyph unicode="&#xe6e0;" d="M43 224q0-44 16.5-83t45.5-68 68-45.5 83-16.5 83 16.5 68 45.5 45.5 68 16.5 83-16.5 83-45.5 68-68 45.5-83 16.5-83-16.5-68-45.5-45.5-68-16.5-83zM171 288q0 18 6.5 33.5t18.5 26.5q11 12 26.5 18.5t33.5 6.5 33.5-6.5 26.5-18.5q12-11 18.5-26.5t6.5-33.5q0-7-1.5-14t-3.5-13q-3-6-6.5-11.5t-7.5-10.5l-19-19q-6-6-11-11.5t-8-12.5-5-15.5-2-20.5h-42v11q0 8 1.5 16.5t4.5 16.5q3 7 8 14t11 12l26 28q3 3 5.5 6t3.5 7q2 3 3 7.5t1 9.5q0 9-3.5 16.5t-9.5 13.5-13.5 9.5-16.5 3.5-16.5-3.5-13.5-9.5-9.5-13.5-3.5-16.5h-42zM235 75v42h42v-42h-42z" />
<glyph unicode="&#xe6e1;" d="M63 352l1-256q-0.25-1.75-0.25-3.5 0-7 3.25-13 4-7.5 9-13.5 6-6 13.5-9.5t17.5-3.5h297q10 0 17.5 3.5t13.5 9.5q5 6 9 13.5 3.25 6 3.25 13 0 1.75-0.25 3.5l1 256q-1 9-4 16.5t-10 13.5q-4 6-12.5 9.5t-16.5 3.5h-299q-8 0-16.5-3.5t-12.5-9.5q-7-6-10-13.5t-4-16.5zM127 288h33l-1-53h44l-1 53h33l-1-128h-31l-1 43h-42l-1-43h-31zM276 181l1 86q-0.25 1.25-0.25 2.25 0 7.5 5.75 12.75 6.5 6 15.5 6h65q8 0 14.5-6 5.75-5.25 5.75-12.75 0-1.25-0.25-2.25l1-86q-1-9-6.5-15t-15.5-6h-16l-1-32h-31l-1 32h-14q-11 0-16.5 6t-6.5 15zM308 192h44l-1 64h-42z" />
<glyph unicode="&#xe6e2;" d="M21 75h299v53q0 18-16.5 32t-39.5 24q-24 9-49.5 14t-43.5 5q-19 0-44.5-5t-48.5-14q-24-10-40.5-24t-16.5-32v-53zM107 309q0-13 4.5-25t13.5-20q9-9 20.5-14t25.5-5q13 0 25 5t20 14q9 8 14 20t5 25q0 14-5 25.5t-14 20.5q-8 9-20 13.5t-25 4.5q-14 0-25.5-4.5t-20.5-13.5-13.5-20.5-4.5-25.5zM277 309q0-13 5-25t14-20q8-9 20-14t25-5q14 0 25.5 5t20.5 14q9 8 13.5 20t4.5 25q0 14-4.5 25.5t-13.5 20.5-20.5 13.5-25.5 4.5q-13 0-25-4.5t-20-13.5q-9-9-14-20.5t-5-25.5zM320 201q10-7 17.5-15t13.5-17 9-19.5 3-21.5v-53h128v53q0 18-16.5 32t-40.5 24q-23 9-48.5 14t-44.5 5q-4 0-9.5-0.5t-11.5-1.5z" />
<glyph unicode="&#xe6e3;" d="M43 245h138l-59 60q10 20 25 36.5t34 28.5q18 12 40 18.5t46 6.5q32 0 61.5-13t50.5-35q22-21 35-50.5t13-61.5q0-33-13-62t-35-51q-21-22-50.5-34.5t-61.5-12.5q-27 0-50.5 8t-43.5 22q-19 14-34 33.5t-24 42.5h-45q9-32 27.5-59t44.5-47 57.5-31.5 67.5-11.5q42 0 79 16t64 44q28 27 43.5 64t15.5 79q0 41-16 78t-43 65q-28 27-65 43t-78 16q-28 0-54-7t-49-21q-23-13-41-32t-31-42l-49 49v-139zM235 222l100-60 17 28-85 51v90h-32v-109z" />
<glyph unicode="&#xe6e4;" d="M43 224h64v-171h106v128h86v-128h106v171h64l-213 192z" />
<glyph unicode="&#xe6e5;" d="M85 12l128-1v43l86-1v-41l128-1v385l-64-1v43l-214-1v-41l-64-1v-383zM192 117v44l43-1v-42zM192 204v41l43 1v-43zM192 288v44l43-1v-42zM277 118v42l43 1v-44zM277 203v43l43-1v-41zM277 289v42l43 1v-44z" />
<glyph unicode="&#xe6e6;" d="M64 75q0-9 3.5-17t9.5-13q5-6 13-9.5t17-3.5h298q9 0 17 3.5t13 9.5q6 5 9.5 13t3.5 17v298q0 9-3.5 17t-9.5 13q-5 6-13 9.5t-17 3.5h-298q-9 0-17-3.5t-13-9.5q-6-5-9.5-13t-3.5-17v-298zM149 224q0 22 8.5 41.5t22.5 34.5q15 14 34.5 22.5t41.5 8.5v42h149v-298h-149v42q-22 0-41.5 8.5t-34.5 22.5q-14 15-22.5 34.5t-8.5 41.5zM256 117q22 0 41.5 8.5t34.5 22.5q14 15 22.5 34.5t8.5 41.5-8.5 41.5-22.5 34.5q-15 14-34.5 22.5t-41.5 8.5v-214z" />
<glyph unicode="&#xe6e7;" d="M44 224v-4.75q0-41.25 16-78.25 17-39 45-68 30-29 68.5-45.5t83.5-16.5q43 0 82.5 16.5t67.5 45.5q30 29 46 68t17 83q-1 44-17 83t-46 68q-28 29-67.5 45.5t-82.5 16.5q-45 0-83.5-16.5t-68.5-45.5q-28-29-45-68-16-36.75-16-78.25v-4.75zM85 224q1 35 14 66t37 55q23 23 54.5 36.5t65.5 13.5q36 0 66.5-13.5t55.5-36.5q22-24 36-55 13-29 13-61.25v-9.5q0-32.5-13-61.25-14-31-36-55-25-23-55.5-36.5t-66.5-13.5q-34 0-65.5 13.5t-54.5 36.5q-24 24-37 55t-14 66zM235 117h43l-1 128h-41zM235 331l1-43h41l1 43h-43z" />
<glyph unicode="&#xe6e8;" d="M0 224h64v-64h43v64h64v43h-64v64h-43v-64h-64v-43zM149 96h256v43q0 16-14 28t-34 20-42 12-38 4-38-4-42-12-34-20-14-28v-43zM213 309q0-13 5-25t14-20q8-9 20-14t25-5q14 0 25.5 5t20.5 14q9 8 13.5 20t4.5 25q0 14-4.5 25.5t-13.5 20.5-20.5 13.5-25.5 4.5q-13 0-25-4.5t-20-13.5q-9-9-14-20.5t-5-25.5zM365 247q5 0 9.5-1t9.5-1q14 0 25.5 5t20.5 14q8 8 13 20t5 25q0 14-5 25.5t-13 20.5q-9 9-20.5 13.5t-25.5 4.5q-5 0-9.5-1t-9.5-1q5-7 8.5-14.5t5.5-14.5q3-8 4-16t1-17q0-8-1-16.5t-4-15.5q-2-8-5.5-15t-8.5-15zM418 198q7-5 12-12t9-14q4-8 6.5-16.5t2.5-16.5v-43h64v43q0 12-8.5 22t-22.5 17q-14 8-30.5 13t-32.5 7z" />
<glyph unicode="&#xe6e9;" d="M64 256v-5q0-35.25 13.5-66 14.5-33 38.5-57 26-25 58.5-39t70.5-14h10l1-75q38 18 70 47t54 63q23 35 34.5 72.5t12.5 73.5q-1 38-15 71t-39 57q-24 25-57.5 39t-70.5 14q-38 0-70.5-14t-58.5-39q-24-24-38.5-57-13.5-30.75-13.5-66v-5zM170 245l1 64h63l1-64h-1l-21-42h-33l23 42h-33zM255 245l1 64h63l1-64h-1l-20-42h-33l22 42h-33z" />
<glyph unicode="&#xe6ea;" d="M43 224q0-44 16.5-83t45.5-68 68-45.5 83-16.5 81 16.5 64 45.5 42.5 68 15.5 83v21h-182v-53h126q-5-28-18-51.5t-32-40.5q-20-17-44.5-26.5t-52.5-9.5q-33 0-62 12.5t-51 34.5-34.5 51-12.5 62 12.5 62 34.5 51 51 34.5 62 12.5q17 0 32.5-3.5t29.5-9.5q14-7 26.5-16t22.5-20l38 38q-14 15-31 26.5t-35 20.5q-19 8-40 12.5t-43 4.5q-44 0-83-16.5t-68-45.5-45.5-68-16.5-83z" />
<glyph unicode="&#xe6eb;" d="M26 70q0-18 8.5-35.5t25.5-30.5 43.5-21.5 62.5-8.5q44 0 76 11t53 29 31.5 40.5 10.5 45.5q0 17-4 30t-11 24q-8 11-17.5 21t-20.5 19l-24 17q-3 3-6 5.5t-5 6.5q-3 4-4.5 8t-1.5 10 2 11 5 9q3 5 7 8.5t8 5.5q10 8 20 17t18 19q7 11 12 24.5t5 31.5q0 17-4.5 30t-11.5 24q-6 10-13.5 17t-13.5 12h37l25 30h-132q-35 0-61.5-10.5t-44.5-27.5q-17-17-26-39.5t-9-46.5q0-18 7-36.5t21-32.5q13-15 33-24t46-9h17q-2-5-5.5-12.5t-3.5-15.5 1.5-14 4.5-10q3-5 6.5-9.5t7.5-9.5q-12 0-27-2t-32-6-34.5-10-32.5-16q-15-8-24.5-18.5t-14.5-20.5q-6-11-8-21t-2-19zM83 83q0 18 7 30t16 20q9 7 18.5 11.5t14.5 6.5q20 7 42.5 9t27.5 2h15q19-13 33-23.5t22-19.5q9-10 13.5-19.5t4.5-22.5q0-15-7.5-28.5t-20.5-23.5q-13-9-31-15t-40-6q-26 0-47.5 6t-36.5 16q-15 11-23 25.5t-8 31.5zM122 388q0 18 4.5 31t12.5 21 18.5 12.5 21.5 4.5q21 0 37-12.5t27-30.5q10-18 16-38.5t6-36.5q0-21-7.5-33.5t-17.5-20.5q-10-7-20.5-9.5t-16.5-2.5q-20 0-35.5 11t-25.5 28-15 37.5-5 38.5zM341 224h64v-64h43v64h64v43h-64v64h-43v-64h-64v-43z" />
<glyph unicode="&#xe6ec;" d="M21 431l44-43q-6-2-9.5-6t-6.5-9q-2-4-4-9.5t-1-11.5l-1-256q1-9 3.5-16.5t9.5-13.5q5-6 13.5-9.5t15.5-3.5h315l42-42 28 27-421 421h1zM128 309h15l157-155-1-15h-170zM167 395l85-86h48l-1-47 13-12 72 59 1-132 84-85q1 1 0.5 1.5t0.5 2.5l-1 256q0.25 2 0.25 4 0 6.75-2.75 12.5-3.5 7.5-8.5 13.5-7 6-14.5 9.5t-16.5 3.5h-260z" />
<glyph unicode="&#xe6ed;" d="M21 203h45q4-34 18.5-63.5t37.5-51.5q22-22 51-36.5t62-17.5v-45h42v45q34 4 63.5 18.5t51.5 37.5q22 22 36.5 51t17.5 62h45v42h-45q-4 34-18.5 63.5t-37.5 51.5q-22 22-51 36.5t-62 17.5v45h-42v-45q-34-3-63.5-17.5t-51.5-36.5-36.5-51.5-17.5-63.5h-45v-42zM107 224q0 31 11.5 58.5t31.5 47.5 47.5 31.5 58.5 11.5 58.5-11.5 47.5-31.5 31.5-47.5 11.5-58.5-11.5-58.5-31.5-47.5-47.5-31.5-58.5-11.5-58.5 11.5-47.5 31.5-31.5 47.5-11.5 58.5zM171 224q0-18 6.5-33.5t18.5-26.5q11-12 26.5-18.5t33.5-6.5 33.5 6.5 26.5 18.5q12 11 18.5 26.5t6.5 33.5-6.5 33.5-18.5 26.5q-11 12-26.5 18.5t-33.5 6.5-33.5-6.5-26.5-18.5q-12-11-18.5-26.5t-6.5-33.5z" />
<glyph unicode="&#xe6ee;" d="M21 203h45q4-34 18.5-63.5t37.5-51.5q22-22 51-36.5t62-17.5v-45h42v45q15 2 28.5 5.5t25.5 8.5q13 6 24.5 13t22.5 16l42-43 28 28-356 354-28-28 43-42q-8-11-15-22.5t-12-24.5q-5-12-8.5-25.5t-5.5-28.5h-45v-42zM107 224q0 13 2 25t6 24 10 22.5 14 20.5l209-209q-10-8-20.5-14t-22.5-10-24-6-25-2q-31 0-58.5 11.5t-47.5 31.5-31.5 47.5-11.5 58.5zM166 395l32-32q8 2 15 4t14 3q7 2 14.5 2.5t14.5 0.5q31 0 58.5-11.5t47.5-31.5 31.5-47.5 11.5-58.5q0-7-0.5-14.5t-2.5-14.5q-1-7-3-14t-4-15l32-32q4 8 7 16.5t6 16.5q2 8 4 17t4 19h43v42h-45q-4 34-18.5 63.5t-37.5 51.5q-22 22-51 36.5t-62 17.5v45h-42v-45q-9-1-18-2.5t-17-4.5q-9-2-17.5-5t-16.5-7z" />
<glyph unicode="&#xe6ef;" d="M63 373l1-298q-0.25-1.75-0.25-3.5 0-7 3.25-13.5 4-8 9-13 6-6 13.5-9.5t17.5-3.5h297q10 0 17.5 3.5t13.5 9.5q5 5 9 13 3.25 6.5 3.25 13.5 0 1.75-0.25 3.5l1 298q-1 9-4 17t-10 13q-4 6-12.5 9.5t-16.5 3.5h-299q-8 0-16.5-3.5t-12.5-9.5q-7-5-10-13t-4-17zM106 160l1 213h297l1-213h-85q-1-14-5.5-25.5t-13.5-20.5q-8-8-20-13t-25-5q-15 0-26 5t-21 13q-7 9-12.5 20.5-4.75 9.75-4.75 21.25 0 2 0.25 4.25h-86zM171 267l84-86 86 86h-42l-1 64h-85l-1-64h-41z" />
<glyph unicode="&#xe6f0;" d="M43 96q1-9 3.5-16.5t9.5-13.5q5-6 13.5-9.5t15.5-3.5h343q7 0 15.5 3.5t13.5 9.5q7 6 9.5 13.5t3.5 16.5l-1 256q0.25 2 0.25 4 0 6.75-2.75 12.5-3.5 7.5-8.5 13.5-7 6-14.5 9.5t-16.5 3.5h-341q-9 0-16.5-3.5t-14.5-9.5q-5-6-8.5-13.5-2.75-5.75-2.75-12.5 0-2 0.25-4zM85 352h27l144-90 146 90h25l1-256h-44l1 188-129-81-127 81-1-188h-42z" />
<glyph unicode="&#xe6f1;" d="M64 76q0-10 3.5-17.5t9.5-13.5q5-5 13-9 6.5-3.25 13.5-3.25 1.75 0 3.5 0.25l298-1q9 1 17 4t13 10q6 4 9.5 12.5t3.5 16.5v299q0 8-3.5 16.5t-9.5 12.5q-5 7-13 10t-17 4l-298-1q-1.75 0.25-3.5 0.25-7 0-13.5-3.25-8-4-13-9-6-6-9.5-13.5t-3.5-17.5v-297zM107 97l74 95v1l54-65 74 97 96-129z" />
<glyph unicode="&#xe6f2;" d="M85 53q0-8 3.5-16t9.5-14 13.5-9 16.5-3h256q9 0 16.5 3t13.5 9 9.5 14 3.5 16v214q0 8-3.5 16t-9.5 14-13.5 9-16.5 3h-21v43q0 22-8.5 41.5t-22.5 34.5q-15 14-34.5 22.5t-41.5 8.5-41.5-8.5-34.5-22.5q-14-15-22.5-34.5t-8.5-41.5v-43h-21q-9 0-16.5-3t-13.5-9-9.5-14-3.5-16v-214zM190 309v43q0 14 5 26t14 21 21 14 26 5 26-5 21-14 14-21 5-26v-43h-132zM213 160q0 9 3.5 16.5t9.5 13.5 13.5 9.5 16.5 3.5 16.5-3.5 13.5-9.5 9.5-13.5 3.5-16.5-3.5-16.5-9.5-13.5-13.5-9.5-16.5-3.5-16.5 3.5-13.5 9.5-9.5 13.5-3.5 16.5z" />
<glyph unicode="&#xe6f3;" d="M21 203h45q4-34 18.5-63.5t37.5-51.5q22-22 51-36.5t62-17.5v-45h42v45q34 4 63.5 18.5t51.5 37.5q22 22 36.5 51t17.5 62h45v42h-45q-4 34-18.5 63.5t-37.5 51.5q-22 22-51 36.5t-62 17.5v45h-42v-45q-34-3-63.5-17.5t-51.5-36.5-36.5-51.5-17.5-63.5h-45v-42zM107 224q0 31 11.5 58.5t31.5 47.5 47.5 31.5 58.5 11.5 58.5-11.5 47.5-31.5 31.5-47.5 11.5-58.5-11.5-58.5-31.5-47.5-47.5-31.5-58.5-11.5-58.5 11.5-47.5 31.5-31.5 47.5-11.5 58.5z" />
<glyph unicode="&#xe6f4;" d="M43 11l86 85h298q9 0 16.5 3.5t14.5 9.5q5 5 8.5 13t2.5 17l1 256q-1 8-3.5 16t-9.5 14q-5 6-13.5 9t-15.5 3h-342q-9 0-16.5-3t-14.5-9q-5-6-8.5-14t-2.5-16zM107 181l75 96 53-64 75 96 95-128h-298z" />
<glyph unicode="&#xe6f5;" d="M48.5 287.5q1.5-3.5 4.5-8.5l45-33q0-5-1-10t-1-12q0-5 0.5-11t1.5-9l-45-38q-3-2-3-5.5t1-5.5l43-76q1-1 4.5-2.5t8.5 1.5l53 20q4-2 8.5-5.5t8.5-4.5q5-4 9.5-6t9.5-5l9-55q0-4 3-6t7-3l86 1q3-1 6.5 2t3.5 5l9 57q5 1 9.5 4t9.5 5q5 3 9 5.5t8 6.5l54-22q3-1 7 0t5 5l43 74q2 4 1.5 7.5t-3.5 6.5l-49 33q0 5 1 10t1 12q0 5-0.5 11t-1.5 9l45 38q3 2 3 5.5t-1 5.5l-43 76q-1 1-4.5 2.5t-8.5-1.5l-53-20q-4 2-8.5 5.5t-8.5 4.5q-5 4-9.5 6t-9.5 5l-9 55q2 5-1.5 7.5t-6.5 3.5l-86-1q-3 1-6.5-2t-3.5-5l-9-59q-5 0-9.5-3t-8.5-5q-4-4-8.5-6.5t-9.5-6.5l-51 22q-5 1-8.5 0t-6.5-5l-43-74q-2-2-0.5-5.5zM181 225q0 14 6 28t16 24q11 11 24.5 16.5t28.5 6.5q15-1 28.5-6.5t24.5-16.5q10-10 16-24t6-28q0-16-6-29t-16-25q-11-9-24.5-15.5t-28.5-5.5q-15-1-28.5 5.5t-24.5 15.5q-10 12-16 25t-6 29z" />
<glyph unicode="&#xe6f6;" d="M85 53q0-8 3.5-16t9.5-14 13.5-9 16.5-3h256q9 0 16.5 3t13.5 9 9.5 14 3.5 16v342q0 8-3.5 16t-9.5 14-13.5 9-16.5 3h-171l-128-128v-256zM213 309v86h43v-86h-43zM277 309v86h43v-86h-43zM341 309v86h43v-86h-43z" />
<glyph unicode="&#xe6f7;" d="M64 75q0-9 3.5-17t9.5-13q5-6 13-9.5t17-3.5h298q9 0 17 3.5t13 9.5q6 5 9.5 13t3.5 17v256l-85 85h-256q-9 0-17-3.5t-13-9.5q-6-5-9.5-13t-3.5-17v-298zM107 288v85h213v-85h-213zM192 139q0 13 5 25t13 20q9 9 20.5 14t25.5 5 25.5-5 20.5-14q8-8 13-20t5-25q0-14-5-25.5t-13-20.5q-9-9-20.5-13.5t-25.5-4.5-25.5 4.5-20.5 13.5q-8 9-13 20.5t-5 25.5z" />
<glyph unicode="&#xe6f8;" d="M43 224q0-44 16.5-83t45.5-68 68-45.5 83-16.5 83 16.5 68 45.5 45.5 68 16.5 83-16.5 83-45.5 68-68 45.5-83 16.5-83-16.5-68-45.5-45.5-68-16.5-83zM85 224q0 35 13.5 66t36.5 55q24 23 55 36.5t66 13.5 66-13.5 55-36.5q23-24 36.5-55t13.5-66-13.5-66-36.5-55q-24-23-55-36.5t-66-13.5-66 13.5-55 36.5q-23 24-36.5 55t-13.5 66zM235 203l111-69 17 28-96 58v111h-32v-128z" />
<glyph unicode="&#xe6f9;" d="M21 288l235-128 192 105v-148h43v171l-235 128zM107 113l149-81 149 81v85l-149-81-149 81v-85z" />
<glyph unicode="&#xe6fa;" d="M64 277q0-28 11-53.5t30-44.5q18-19 43.5-29.5t54.5-10.5q12 0 24.5 2t23.5 7q12 4 22 10.5t19 14.5l7-7v-17l106-106 32 32-106 106h-17l-7 7q8 9 14.5 19t10.5 22q5 11 7 23.5t2 24.5q0 29-10.5 54.5t-29.5 43.5q-19 19-44.5 30t-53.5 11q-29 0-54.5-11t-43.5-30q-19-18-30-43.5t-11-54.5zM107 277q0 20 7.5 37.5t20.5 30.5 30.5 20.5 37.5 7.5 37.5-7.5 30.5-20.5 20.5-30.5 7.5-37.5-7.5-37.5-20.5-30.5-30.5-20.5-37.5-7.5-37.5 7.5-30.5 20.5-20.5 30.5-7.5 37.5z" />
<glyph unicode="&#xe6fb;" d="M21 224q4-50 25.5-92.5t56.5-74.5q34-32 78.5-50t93.5-18h15l-81 81-28-27q-26 12-48 30.5t-39 41.5q-16 23-26.5 51t-14.5 58h-32zM48 306q0-6 2.5-11.5t7.5-10.5l256-256q4-5 10-7.5t12-2.5 12 2.5 10 7.5l137 136q5 4 7.5 9.5t2.5 11.5-2 11.5-6 10.5l-55 55-30-29 47-47-122-122-241 241 122 122 44-45 30 30-51 51q-5 5-10.5 7.5t-11.5 2.5-12-2.5-11-7.5l-138-134q-5-5-7.5-11t-2.5-12zM320 309q0-9 6-15t15-6h107q10 0 15.5 6t5.5 15v86q0 9-5.5 15t-15.5 6v11q0 11-4 20.5t-11 17.5q-8 7-17.5 11t-20.5 4q-12 0-21.5-4t-16.5-11q-7-8-11.5-17.5t-4.5-20.5v-11q-9 0-15-6t-6-15v-86zM358 416v11q0 7 3 13.5t8 11.5 11.5 8 14.5 3q7 0 13.5-3t11.5-8 8-11.5 3-13.5v-11h-73z" />
<glyph unicode="&#xe6fc;" d="M2 203q4-50 25.5-93t55.5-74q34-32 78.5-50t94.5-18h15l-81 81-30-28q-26 12-48.5 30.5t-38.5 42.5q-17 23-27.5 50.5t-13.5 58.5h-30zM27 285q0-6 2-12t7-11l256-256q5-4 11-6.5t12-2.5 11.5 2.5 10.5 6.5l137 137q4 5 6.5 10.5t2.5 11.5-2.5 12-6.5 11l-256 256q-5 5-11 7t-12 2-11.5-2-10.5-7l-137-137q-5-5-7-10.5t-2-11.5zM60 284l136 136 256-256-136-136zM241 480l81-81 30 28q26-12 48.5-30.5t38.5-42.5q17-23 27.5-50.5t13.5-58.5h32q-5 50-26.5 93t-55.5 74q-35 32-79.5 50t-94.5 18h-15z" />
<glyph unicode="&#xe6fd;" d="M85 53q0-8 3.5-16t9.5-14 13.5-9 16.5-3h256q9 0 16.5 3t13.5 9 9.5 14 3.5 16v342q0 8-3.5 16t-9.5 14-13.5 9-16.5 3h-171l-128-128v-256zM213 309v86h43v-86h-43zM277 309v86h43v-86h-43zM341 309v86h43v-86h-43z" />
<glyph unicode="&#xe6fe;" d="M106 416l1-384q-1-9 2.5-16.5t8.5-13.5q7-6 14.5-9.5t16.5-3.5h213q9 0 16.5 3.5t14.5 9.5q5 6 8.5 13.5t2.5 16.5l1 384q-1 9-3.5 16.5t-9.5 13.5q-5 6-13.5 9.5t-15.5 3.5h-215q-7 0-15.5-3.5t-13.5-9.5q-7-6-9.5-13.5t-3.5-16.5zM148 373h215l-1-298h-213zM191 224l1-64q-1-10 5.5-15.5t14.5-5.5h86q10 0 15.5 5.5t6.5 15.5l-1 64q1 10-5.5 15.5t-14.5 5.5l-1 22q1 8-3 16t-9 14q-7 6-14 9t-17 3q-8 0-16-3t-13-9q-7-6-10-14t-4-16l1-22q-10 0-15.5-5.5t-6.5-15.5zM229 267h1q-1 5 1.5 10t5.5 8q4 3 8 5t11 2q5 0 10-2t7-5q5-3 6.5-8t2.5-10l-1-22h-51z" />
<glyph unicode="&#xe6ff;" d="M107 147l31-30 97 98 1-162h20l123 122-93 92 93 91-123 122h-20l-1-162-97 98-31-30 120-119zM149 11l1-43h42l1 43h-44zM235-32h43l-1 43h-41zM277 215l42-40h-1l-40-41zM277 318l1 81h-1l42-41zM320-32h44l-1 43h-42z" />
<glyph unicode="&#xe700;" d="M21 117q0-8 3.5-16t9.5-14 13.5-9 16.5-3h384q9 0 16.5 3t13.5 9 9.5 14 3.5 16v214q0 8-3.5 16t-9.5 14-13.5 9-16.5 3h-384q-9 0-16.5-3t-13.5-9-9.5-14-3.5-16v-214zM107 117v214h298v-214h-298zM192 160q0-10 6-15.5t15-5.5h86q9 0 15 5.5t6 15.5v64q0 10-6 15.5t-15 5.5v22q0 8-3.5 16t-9.5 14-13.5 9-16.5 3-16.5-3-13.5-9-9.5-14-3.5-16v-22q-9 0-15-5.5t-6-15.5v-64zM230 245v22q0 5 2 10t6 8q3 3 7.5 5t10.5 2 10.5-2 7.5-5q4-3 6-8t2-10v-22h-52z" />
<glyph unicode="&#xe701;" d="M85 245q0-35 13.5-66t36.5-54q24-23 55-36.5t66-13.5 66 13.5 55 36.5q23 23 36.5 54t13.5 66q0 22-5.5 42t-15.5 38q-9 18-22.5 33.5t-29.5 27.5l-30-30q13-9 24-20.5t19-25.5q8-15 12.5-31t4.5-34q0-26-10-49.5t-28-40.5q-17-17-40.5-27.5t-49.5-10.5-49.5 10.5-40.5 27.5q-18 17-28 40.5t-10 49.5q0 18 4.5 34t12.5 30q9 14 20 25.5t25 19.5l-32 32q-16-12-29.5-27.5t-22.5-33.5q-10-18-15.5-38t-5.5-42zM149 11v-43h43v43h-43zM235 11v-43h42v43h-42zM235 224h42v213h-42v-213zM320 11v-43h43v43h-43z" />
<glyph unicode="&#xe702;" d="M63 395q1-76 29-142t78-115q48-49 114.5-77.5t141.5-28.5q10 0 15.5 6t6.5 15l-1 75q1 10-5.5 15.5t-14.5 5.5q-11 0-20 1t-20 3q-8 1-18.5 3.5t-18.5 5.5q-6 2-11.5 0.5t-10.5-4.5l-46-47q-24 11-43.5 26t-38.5 33q-17 18-32.5 38.5t-26.5 43.5l46 47q6 4 6.5 10t-1.5 11q-3 9-4.5 18t-4.5 19q0 9-1.5 18.5t-0.5 19.5q-1 9-6 15t-16 6h-74q-10 0-15.5-6t-6.5-15zM234 288l1-43h41l1 43h-43zM319 245h44l-1 43h-42zM404 288l1-43h42l1 43h-44z" />
<glyph unicode="&#xe703;" d="M106 203l1 42h297l1-42h-299z" />
<glyph unicode="&#xe704;" d="M43 224q0-44 16.5-83t45.5-68 68-45.5 83-16.5 83 16.5 68 45.5 45.5 68 16.5 83-16.5 83-45.5 68-68 45.5-83 16.5-83-16.5-68-45.5-45.5-68-16.5-83zM149 203v42h214v-42h-214z" />
<glyph unicode="&#xe705;" d="M43 223q0-43 16.5-82.5t45.5-67.5q29-30 68-46t83-17q44 1 83 17t68 46q29 28 45.5 67.5t16.5 82.5q0 45-16.5 83.5t-45.5 68.5q-29 28-68 45t-83 16q-44 1-83-16t-68-45q-29-30-45.5-68.5t-16.5-83.5zM85 224q0 34 13.5 65.5t36.5 54.5q24 24 55 37t66 14q35-1 66-14t55-37q23-23 36.5-54.5t13.5-65.5q0-36-13.5-66.5t-36.5-55.5q-24-22-55-36t-66-13q-35-1-66 13t-55 36q-23 25-36.5 55.5t-13.5 66.5zM149 202l214 1v41l-214 1v-43z" />
<glyph unicode="&#xe706;" d="M85 202q0-35 13.5-66.5t36.5-53.5q24-24 55-37t66-14q35 1 66 14t55 37q23 22 36.5 53.5t13.5 66.5q0 36-13.5 66.5t-36.5 54.5q-24 22-55 36t-66 13v86l-107-106 107-108v87q26-1 49.5-11t40.5-28q18-16 28-40t10-49q0-28-10-50.5t-28-41.5q-17-16-40.5-26.5t-49.5-9.5q-26-1-49.5 9.5t-40.5 26.5q-18 19-28 41.5t-10 50.5z" />
<glyph unicode="&#xe707;" d="M64 224l149-149v87q40 0 74.5-6.5t63.5-19.5q29-14 53-34.5t44-48.5q-8 40-24.5 79t-44.5 71-69 54.5-97 30.5v85z" />
<glyph unicode="&#xe708;" d="M0 224l149-149v64l-85 85 85 85v64zM128 224l149-149v87q40 0 74.5-6.5t63.5-19.5q29-14 53-34.5t44-48.5q-8 40-24.5 79t-44.5 71-69 54.5-97 30.5v85z" />
<glyph unicode="&#xe709;" d="M64 143l113-111h160l113 113v158l-115 113h-158l-113-113v-160zM228 139q0 5 2.5 10t6.5 9q3 4 8 6t11 2 11-2 8-6q4-4 6.5-9t2.5-10q0-6-2.5-11t-6.5-9q-3-4-8-6t-11-2-11 2-8 6q-4 4-6.5 9t-2.5 11zM235 203v128h42v-128h-42z" />
<glyph unicode="&#xe70a;" d="M0 109q0-5 1.5-8.5t4.5-6.5l54-53q3-4 6.5-5.5t8.5-1.5q4 0 7.5 1.5t7.5 5.5q6 5 13 10.5t14 10.5q7 6 14.5 10.5t15.5 8.5q5 3 9 8t4 11v66q11 4 23 7t24 5q13 2 25.5 2.5t25.5 0.5 25.5-1 24.5-3 24-4.5 24-6.5v-66q0-6 3.5-11t9.5-8q8-4 15.5-8.5t14.5-9.5q8-5 14.5-10.5t13.5-11.5q3-4 6.5-5.5t8.5-1.5q4 0 7.5 1.5t7.5 5.5l53 53q3 3 4.5 6.5t1.5 8.5q-3 5-5 8.5t-5 6.5q-24 23-52.5 41.5t-60.5 31.5-66.5 20-70.5 7-70.5-7-66.5-20-60.5-31.5-52.5-41.5q-3-3-4.5-6.5t-1.5-8.5zM60 346q3 0 40-37.5l37-37.5 29 30-74 77zM235 331h42v106h-42v-106zM346 299l29-30q0 1 37 39t40 38l-30 29z" />
<glyph unicode="&#xe70b;" d="M86 245h44q0 8 2.5 14.5t4.5 13.5q3 6 6 12.5t8 13.5l-30 30q-7-10-13-20t-10-20q-5-11-7.5-21.5t-4.5-22.5zM87 203q1-12 4.5-22.5t6.5-21.5l10-20t14-20l28 30q-3 7-7 13.5t-5 12.5q-4 7-5.5 13.5t-3.5 14.5h-42zM151 90q9-8 19.5-13.5t19.5-9.5q12-4 22-7t23-5l-1 43q-7 1-14 3t-13 5q-7 2-13 5.5t-14 7.5zM180 363l97-96-1 83q24-4 43-15t34-28q13-17 22-38t8-45q1-24-8-45t-22-38q-15-17-34-28t-43-15l1-43q31 4 58.5 19t46.5 38q21 22 32.5 51t12.5 61q-1 32-12.5 61t-32.5 51q-19 23-46.5 38t-58.5 19h-1l1 66z" />
<glyph unicode="&#xe70c;" d="M85 224q0-33 12-62t32-51 47-37 59-19v43q-23 4-42.5 15t-33.5 28-22.5 38-8.5 45 8.5 45 22.5 38 33.5 28 42.5 15v-83l96 96-96 96v-66q-32-4-59-19t-47-37-32-51-12-62zM277 55q12 2 22.5 5t21.5 7q10 4 20 9.5t20 13.5l-30 29q-7-4-13.5-7.5t-12.5-5.5q-7-3-13.5-5t-14.5-3v-43zM361 149l29-30q8 10 13.5 20t10.5 20q4 11 7 21.5t4 22.5h-43q-1-8-3-14.5t-5-13.5q-2-6-5.5-12.5t-7.5-13.5zM361 299q4-7 7.5-13.5t5.5-12.5q3-7 5-13.5t3-14.5h43q-2 12-5 22.5t-7 21.5q-4 10-9.5 20t-13.5 20z" />
<glyph unicode="&#xe70d;" d="M64 75q0-9 3.5-17t9.5-13q5-6 13-9.5t17-3.5v43h-43zM64 117h43v43h-43v-43zM64 203h43v42h-43v-42zM64 288h43v43h-43v-43zM64 373h43v43q-9 0-17-3.5t-13-9.5q-6-5-9.5-13t-3.5-17zM149 32h43v43h-43v-43zM149 117h214v214h-214v-214zM149 373h43v43h-43v-43zM192 160v128h128v-128h-128zM235 32h42v43h-42v-43zM235 373h42v43h-42v-43zM320 32h43v43h-43v-43zM320 373h43v43h-43v-43zM405 32q9 0 17 3.5t13 9.5q6 5 9.5 13t3.5 17h-43v-43zM405 117h43v43h-43v-43zM405 203h43v42h-43v-42zM405 288h43v43h-43v-43zM405 373h43q0 9-3.5 17t-9.5 13q-5 6-13 9.5t-17 3.5v-43z" />
<glyph unicode="&#xe70e;" d="M43 32l448 192-448 192v-149l320-43-320-43v-149z" />
<glyph unicode="&#xe70f;" d="M64 75q0-9 3.5-17t9.5-13q5-6 13-9.5t17-3.5h298q9 0 17 3.5t13 9.5q6 5 9.5 13t3.5 17v298q0 9-3.5 17t-9.5 13q-5 6-13 9.5t-17 3.5h-298q-9 0-17-3.5t-13-9.5q-6-5-9.5-13t-3.5-17v-298zM112.5 180q1.5 2 2.5 3l32 26v30l-32 26q-1 1-2.5 3.5t0.5 4.5l30 51q2 3 4.5 4t3.5 1l37-15q6 3 12.5 7t12.5 8l7 40q0 3 2.5 4.5t3.5 1.5h60q3 0 4.5-1.5t1.5-4.5l7-40q6-4 12.5-7.5t12.5-7.5l37 15q3 1 4.5-0.5t3.5-4.5l30-51q2-3 0.5-5t-2.5-3l-32-26q1-3 1.5-7.5t0.5-7.5v-15l32-26q2-1 3-3.5t-1-4.5l-30-51q-1-3-4-4t-4-1l-37 15q-6-4-12.5-7.5t-12.5-7.5l-7-40q0-3-2-4.5t-4-1.5h-60q-3 0-4.5 1.5t-1.5 4.5l-9 40q-6 4-12.5 7.5t-12.5 7.5l-37-15q-3-1-4.5 0.5t-3.5 4.5l-30 51q-2 3-0.5 5zM213 224q0-9 3.5-16.5t9.5-13.5 13.5-9.5 16.5-3.5 16.5 3.5 13.5 9.5 9.5 13.5 3.5 16.5-3.5 16.5-9.5 13.5-13.5 9.5-16.5 3.5-16.5-3.5-13.5-9.5-9.5-13.5-3.5-16.5z" />
</font>
</defs>
</svg>
